ISO-10303-21;
HEADER;
/* Generated by software containing ST-Developer
 * from STEP Tools, Inc. (www.steptools.com) 
 */

FILE_DESCRIPTION(
/* description */ (''),
/* implementation_level */ '2;1');

FILE_NAME(
/* name */ 'Plane_N STEP -- 001 Rev C.step',
/* time_stamp */ '2026-10-07T19:29:52+02:00',
/* author */ (''),
/* organization */ (''),
/* preprocessor_version */ 'ST-DEVELOPER v20.1',
/* originating_system */ 'Autodesk Translation Framework v15.8.0.0',
/* authorisation */ '');

FILE_SCHEMA (('AUTOMOTIVE_DESIGN { 1 0 10303 214 3 1 1 }'));
ENDSEC;

DATA;
#10=MECHANICAL_DESIGN_GEOMETRIC_PRESENTATION_REPRESENTATION('',(#13,#14,
#15),#896);
#11=SHAPE_REPRESENTATION_RELATIONSHIP('SRR','None',#903,#12);
#12=ADVANCED_BREP_SHAPE_REPRESENTATION('',(#16,#17,#18),#895);
#13=STYLED_ITEM('',(#913),#16);
#14=STYLED_ITEM('',(#913),#17);
#15=STYLED_ITEM('',(#913),#18);
#16=MANIFOLD_SOLID_BREP('Body2',#556);
#17=MANIFOLD_SOLID_BREP('Body14',#557);
#18=MANIFOLD_SOLID_BREP('Body19',#558);
#19=FACE_OUTER_BOUND('',#50,.T.);
#20=FACE_OUTER_BOUND('',#51,.T.);
#21=FACE_OUTER_BOUND('',#52,.T.);
#22=FACE_OUTER_BOUND('',#53,.T.);
#23=FACE_OUTER_BOUND('',#54,.T.);
#24=FACE_OUTER_BOUND('',#55,.T.);
#25=FACE_OUTER_BOUND('',#56,.T.);
#26=FACE_OUTER_BOUND('',#57,.T.);
#27=FACE_OUTER_BOUND('',#58,.T.);
#28=FACE_OUTER_BOUND('',#59,.T.);
#29=FACE_OUTER_BOUND('',#60,.T.);
#30=FACE_OUTER_BOUND('',#61,.T.);
#31=FACE_OUTER_BOUND('',#62,.T.);
#32=FACE_OUTER_BOUND('',#63,.T.);
#33=FACE_OUTER_BOUND('',#64,.T.);
#34=FACE_OUTER_BOUND('',#65,.T.);
#35=FACE_OUTER_BOUND('',#66,.T.);
#36=FACE_OUTER_BOUND('',#67,.T.);
#37=FACE_OUTER_BOUND('',#68,.T.);
#38=FACE_OUTER_BOUND('',#69,.T.);
#39=FACE_OUTER_BOUND('',#70,.T.);
#40=FACE_OUTER_BOUND('',#71,.T.);
#41=FACE_OUTER_BOUND('',#72,.T.);
#42=FACE_OUTER_BOUND('',#73,.T.);
#43=FACE_OUTER_BOUND('',#74,.T.);
#44=FACE_OUTER_BOUND('',#75,.T.);
#45=FACE_OUTER_BOUND('',#76,.T.);
#46=FACE_OUTER_BOUND('',#77,.T.);
#47=FACE_OUTER_BOUND('',#78,.T.);
#48=FACE_OUTER_BOUND('',#79,.T.);
#49=FACE_OUTER_BOUND('',#80,.T.);
#50=EDGE_LOOP('',(#348,#349,#350));
#51=EDGE_LOOP('',(#351,#352,#353));
#52=EDGE_LOOP('',(#354,#355,#356,#357));
#53=EDGE_LOOP('',(#358,#359,#360,#361));
#54=EDGE_LOOP('',(#362,#363,#364,#365));
#55=EDGE_LOOP('',(#366,#367,#368,#369));
#56=EDGE_LOOP('',(#370,#371,#372,#373,#374));
#57=EDGE_LOOP('',(#375,#376,#377,#378,#379,#380,#381));
#58=EDGE_LOOP('',(#382,#383,#384,#385,#386));
#59=EDGE_LOOP('',(#387,#388,#389,#390,#391,#392));
#60=EDGE_LOOP('',(#393,#394,#395,#396));
#61=EDGE_LOOP('',(#397,#398,#399,#400,#401));
#62=EDGE_LOOP('',(#402,#403,#404,#405,#406));
#63=EDGE_LOOP('',(#407,#408,#409,#410));
#64=EDGE_LOOP('',(#411,#412,#413,#414));
#65=EDGE_LOOP('',(#415,#416,#417,#418,#419));
#66=EDGE_LOOP('',(#420,#421,#422,#423));
#67=EDGE_LOOP('',(#424,#425,#426,#427));
#68=EDGE_LOOP('',(#428,#429,#430,#431,#432));
#69=EDGE_LOOP('',(#433,#434,#435,#436));
#70=EDGE_LOOP('',(#437,#438,#439,#440,#441,#442,#443));
#71=EDGE_LOOP('',(#444,#445,#446,#447,#448));
#72=EDGE_LOOP('',(#449,#450,#451,#452));
#73=EDGE_LOOP('',(#453,#454,#455));
#74=EDGE_LOOP('',(#456,#457,#458,#459));
#75=EDGE_LOOP('',(#460,#461,#462,#463,#464,#465,#466,#467,#468,#469,#470));
#76=EDGE_LOOP('',(#471,#472,#473,#474));
#77=EDGE_LOOP('',(#475,#476,#477,#478));
#78=EDGE_LOOP('',(#479,#480,#481,#482,#483,#484,#485,#486));
#79=EDGE_LOOP('',(#487,#488,#489,#490));
#80=EDGE_LOOP('',(#491,#492,#493));
#81=LINE('',#744,#154);
#82=LINE('',#746,#155);
#83=LINE('',#747,#156);
#84=LINE('',#751,#157);
#85=LINE('',#753,#158);
#86=LINE('',#754,#159);
#87=LINE('',#756,#160);
#88=LINE('',#757,#161);
#89=LINE('',#759,#162);
#90=LINE('',#764,#163);
#91=LINE('',#766,#164);
#92=LINE('',#768,#165);
#93=LINE('',#769,#166);
#94=LINE('',#772,#167);
#95=LINE('',#774,#168);
#96=LINE('',#776,#169);
#97=LINE('',#777,#170);
#98=LINE('',#780,#171);
#99=LINE('',#782,#172);
#100=LINE('',#784,#173);
#101=LINE('',#786,#174);
#102=LINE('',#788,#175);
#103=LINE('',#789,#176);
#104=LINE('',#793,#177);
#105=LINE('',#794,#178);
#106=LINE('',#796,#179);
#107=LINE('',#797,#180);
#108=LINE('',#800,#181);
#109=LINE('',#802,#182);
#110=LINE('',#803,#183);
#111=LINE('',#804,#184);
#112=LINE('',#806,#185);
#113=LINE('',#809,#186);
#114=LINE('',#810,#187);
#115=LINE('',#812,#188);
#116=LINE('',#816,#189);
#117=LINE('',#817,#190);
#118=LINE('',#819,#191);
#119=LINE('',#824,#192);
#120=LINE('',#826,#193);
#121=LINE('',#828,#194);
#122=LINE('',#829,#195);
#123=LINE('',#832,#196);
#124=LINE('',#834,#197);
#125=LINE('',#836,#198);
#126=LINE('',#837,#199);
#127=LINE('',#840,#200);
#128=LINE('',#841,#201);
#129=LINE('',#845,#202);
#130=LINE('',#847,#203);
#131=LINE('',#849,#204);
#132=LINE('',#851,#205);
#133=LINE('',#853,#206);
#134=LINE('',#855,#207);
#135=LINE('',#856,#208);
#136=LINE('',#859,#209);
#137=LINE('',#861,#210);
#138=LINE('',#862,#211);
#139=LINE('',#864,#212);
#140=LINE('',#867,#213);
#141=LINE('',#868,#214);
#142=LINE('',#871,#215);
#143=LINE('',#872,#216);
#144=LINE('',#875,#217);
#145=LINE('',#877,#218);
#146=LINE('',#879,#219);
#147=LINE('',#880,#220);
#148=LINE('',#882,#221);
#149=LINE('',#883,#222);
#150=LINE('',#885,#223);
#151=LINE('',#886,#224);
#152=LINE('',#888,#225);
#153=LINE('',#891,#226);
#154=VECTOR('',#607,10.);
#155=VECTOR('',#608,10.);
#156=VECTOR('',#609,10.);
#157=VECTOR('',#612,10.);
#158=VECTOR('',#613,10.);
#159=VECTOR('',#614,10.);
#160=VECTOR('',#617,10.);
#161=VECTOR('',#618,10.);
#162=VECTOR('',#621,10.);
#163=VECTOR('',#626,10.);
#164=VECTOR('',#627,10.);
#165=VECTOR('',#628,10.);
#166=VECTOR('',#629,10.);
#167=VECTOR('',#632,10.);
#168=VECTOR('',#633,10.);
#169=VECTOR('',#634,10.);
#170=VECTOR('',#635,10.);
#171=VECTOR('',#638,10.);
#172=VECTOR('',#639,10.);
#173=VECTOR('',#640,10.);
#174=VECTOR('',#641,10.);
#175=VECTOR('',#642,10.);
#176=VECTOR('',#643,10.);
#177=VECTOR('',#646,10.);
#178=VECTOR('',#647,10.);
#179=VECTOR('',#648,10.);
#180=VECTOR('',#649,10.);
#181=VECTOR('',#652,10.);
#182=VECTOR('',#653,10.);
#183=VECTOR('',#654,10.);
#184=VECTOR('',#655,10.);
#185=VECTOR('',#658,10.);
#186=VECTOR('',#661,10.);
#187=VECTOR('',#662,10.);
#188=VECTOR('',#665,10.);
#189=VECTOR('',#670,10.);
#190=VECTOR('',#671,10.);
#191=VECTOR('',#674,10.);
#192=VECTOR('',#679,10.);
#193=VECTOR('',#680,10.);
#194=VECTOR('',#681,10.);
#195=VECTOR('',#682,10.);
#196=VECTOR('',#685,10.);
#197=VECTOR('',#686,10.);
#198=VECTOR('',#687,10.);
#199=VECTOR('',#688,10.);
#200=VECTOR('',#691,10.);
#201=VECTOR('',#692,10.);
#202=VECTOR('',#695,10.);
#203=VECTOR('',#696,10.);
#204=VECTOR('',#697,10.);
#205=VECTOR('',#698,10.);
#206=VECTOR('',#699,10.);
#207=VECTOR('',#700,10.);
#208=VECTOR('',#701,10.);
#209=VECTOR('',#704,10.);
#210=VECTOR('',#705,10.);
#211=VECTOR('',#706,10.);
#212=VECTOR('',#709,10.);
#213=VECTOR('',#712,10.);
#214=VECTOR('',#713,10.);
#215=VECTOR('',#716,10.);
#216=VECTOR('',#717,10.);
#217=VECTOR('',#720,10.);
#218=VECTOR('',#721,10.);
#219=VECTOR('',#722,10.);
#220=VECTOR('',#723,10.);
#221=VECTOR('',#724,10.);
#222=VECTOR('',#725,10.);
#223=VECTOR('',#728,10.);
#224=VECTOR('',#729,10.);
#225=VECTOR('',#732,10.);
#226=VECTOR('',#737,10.);
#227=VERTEX_POINT('',#742);
#228=VERTEX_POINT('',#743);
#229=VERTEX_POINT('',#745);
#230=VERTEX_POINT('',#749);
#231=VERTEX_POINT('',#750);
#232=VERTEX_POINT('',#752);
#233=VERTEX_POINT('',#762);
#234=VERTEX_POINT('',#763);
#235=VERTEX_POINT('',#765);
#236=VERTEX_POINT('',#767);
#237=VERTEX_POINT('',#771);
#238=VERTEX_POINT('',#773);
#239=VERTEX_POINT('',#775);
#240=VERTEX_POINT('',#779);
#241=VERTEX_POINT('',#781);
#242=VERTEX_POINT('',#783);
#243=VERTEX_POINT('',#785);
#244=VERTEX_POINT('',#787);
#245=VERTEX_POINT('',#791);
#246=VERTEX_POINT('',#792);
#247=VERTEX_POINT('',#795);
#248=VERTEX_POINT('',#799);
#249=VERTEX_POINT('',#801);
#250=VERTEX_POINT('',#808);
#251=VERTEX_POINT('',#815);
#252=VERTEX_POINT('',#822);
#253=VERTEX_POINT('',#823);
#254=VERTEX_POINT('',#825);
#255=VERTEX_POINT('',#827);
#256=VERTEX_POINT('',#831);
#257=VERTEX_POINT('',#833);
#258=VERTEX_POINT('',#835);
#259=VERTEX_POINT('',#839);
#260=VERTEX_POINT('',#843);
#261=VERTEX_POINT('',#844);
#262=VERTEX_POINT('',#846);
#263=VERTEX_POINT('',#848);
#264=VERTEX_POINT('',#850);
#265=VERTEX_POINT('',#852);
#266=VERTEX_POINT('',#854);
#267=VERTEX_POINT('',#858);
#268=VERTEX_POINT('',#860);
#269=VERTEX_POINT('',#866);
#270=VERTEX_POINT('',#870);
#271=VERTEX_POINT('',#874);
#272=VERTEX_POINT('',#876);
#273=VERTEX_POINT('',#878);
#274=VERTEX_POINT('',#881);
#275=EDGE_CURVE('',#227,#228,#81,.F.);
#276=EDGE_CURVE('',#228,#229,#82,.F.);
#277=EDGE_CURVE('',#227,#229,#83,.T.);
#278=EDGE_CURVE('',#230,#231,#84,.T.);
#279=EDGE_CURVE('',#230,#232,#85,.T.);
#280=EDGE_CURVE('',#231,#232,#86,.T.);
#281=EDGE_CURVE('',#231,#228,#87,.T.);
#282=EDGE_CURVE('',#230,#227,#88,.T.);
#283=EDGE_CURVE('',#232,#229,#89,.T.);
#284=EDGE_CURVE('',#233,#234,#90,.T.);
#285=EDGE_CURVE('',#234,#235,#91,.T.);
#286=EDGE_CURVE('',#235,#236,#92,.T.);
#287=EDGE_CURVE('',#236,#233,#93,.T.);
#288=EDGE_CURVE('',#237,#234,#94,.T.);
#289=EDGE_CURVE('',#238,#237,#95,.T.);
#290=EDGE_CURVE('',#239,#238,#96,.T.);
#291=EDGE_CURVE('',#235,#239,#97,.T.);
#292=EDGE_CURVE('',#234,#240,#98,.T.);
#293=EDGE_CURVE('',#233,#241,#99,.F.);
#294=EDGE_CURVE('',#242,#241,#100,.T.);
#295=EDGE_CURVE('',#242,#243,#101,.T.);
#296=EDGE_CURVE('',#244,#243,#102,.T.);
#297=EDGE_CURVE('',#240,#244,#103,.F.);
#298=EDGE_CURVE('',#245,#246,#104,.T.);
#299=EDGE_CURVE('',#246,#244,#105,.T.);
#300=EDGE_CURVE('',#243,#247,#106,.T.);
#301=EDGE_CURVE('',#247,#245,#107,.T.);
#302=EDGE_CURVE('',#247,#248,#108,.T.);
#303=EDGE_CURVE('',#249,#248,#109,.T.);
#304=EDGE_CURVE('',#239,#249,#110,.T.);
#305=EDGE_CURVE('',#245,#238,#111,.T.);
#306=EDGE_CURVE('',#248,#242,#112,.T.);
#307=EDGE_CURVE('',#249,#250,#113,.T.);
#308=EDGE_CURVE('',#250,#236,#114,.T.);
#309=EDGE_CURVE('',#241,#250,#115,.T.);
#310=EDGE_CURVE('',#240,#251,#116,.T.);
#311=EDGE_CURVE('',#251,#246,#117,.T.);
#312=EDGE_CURVE('',#251,#237,#118,.T.);
#313=EDGE_CURVE('',#252,#253,#119,.T.);
#314=EDGE_CURVE('',#253,#254,#120,.T.);
#315=EDGE_CURVE('',#254,#255,#121,.T.);
#316=EDGE_CURVE('',#255,#252,#122,.T.);
#317=EDGE_CURVE('',#252,#256,#123,.T.);
#318=EDGE_CURVE('',#257,#256,#124,.T.);
#319=EDGE_CURVE('',#257,#258,#125,.T.);
#320=EDGE_CURVE('',#258,#253,#126,.T.);
#321=EDGE_CURVE('',#259,#255,#127,.T.);
#322=EDGE_CURVE('',#259,#256,#128,.T.);
#323=EDGE_CURVE('',#260,#261,#129,.T.);
#324=EDGE_CURVE('',#262,#260,#130,.T.);
#325=EDGE_CURVE('',#263,#262,#131,.T.);
#326=EDGE_CURVE('',#264,#263,#132,.T.);
#327=EDGE_CURVE('',#265,#264,#133,.T.);
#328=EDGE_CURVE('',#265,#266,#134,.T.);
#329=EDGE_CURVE('',#261,#266,#135,.T.);
#330=EDGE_CURVE('',#254,#267,#136,.T.);
#331=EDGE_CURVE('',#267,#268,#137,.T.);
#332=EDGE_CURVE('',#268,#259,#138,.T.);
#333=EDGE_CURVE('',#258,#267,#139,.T.);
#334=EDGE_CURVE('',#264,#269,#140,.T.);
#335=EDGE_CURVE('',#269,#265,#141,.T.);
#336=EDGE_CURVE('',#269,#270,#142,.F.);
#337=EDGE_CURVE('',#266,#270,#143,.T.);
#338=EDGE_CURVE('',#271,#264,#144,.T.);
#339=EDGE_CURVE('',#272,#271,#145,.T.);
#340=EDGE_CURVE('',#273,#272,#146,.T.);
#341=EDGE_CURVE('',#268,#273,#147,.T.);
#342=EDGE_CURVE('',#257,#274,#148,.T.);
#343=EDGE_CURVE('',#270,#274,#149,.T.);
#344=EDGE_CURVE('',#272,#262,#150,.T.);
#345=EDGE_CURVE('',#260,#273,#151,.T.);
#346=EDGE_CURVE('',#274,#261,#152,.T.);
#347=EDGE_CURVE('',#263,#271,#153,.T.);
#348=ORIENTED_EDGE('',*,*,#275,.T.);
#349=ORIENTED_EDGE('',*,*,#276,.T.);
#350=ORIENTED_EDGE('',*,*,#277,.F.);
#351=ORIENTED_EDGE('',*,*,#278,.F.);
#352=ORIENTED_EDGE('',*,*,#279,.T.);
#353=ORIENTED_EDGE('',*,*,#280,.F.);
#354=ORIENTED_EDGE('',*,*,#278,.T.);
#355=ORIENTED_EDGE('',*,*,#281,.T.);
#356=ORIENTED_EDGE('',*,*,#275,.F.);
#357=ORIENTED_EDGE('',*,*,#282,.F.);
#358=ORIENTED_EDGE('',*,*,#280,.T.);
#359=ORIENTED_EDGE('',*,*,#283,.T.);
#360=ORIENTED_EDGE('',*,*,#276,.F.);
#361=ORIENTED_EDGE('',*,*,#281,.F.);
#362=ORIENTED_EDGE('',*,*,#279,.F.);
#363=ORIENTED_EDGE('',*,*,#282,.T.);
#364=ORIENTED_EDGE('',*,*,#277,.T.);
#365=ORIENTED_EDGE('',*,*,#283,.F.);
#366=ORIENTED_EDGE('',*,*,#284,.T.);
#367=ORIENTED_EDGE('',*,*,#285,.T.);
#368=ORIENTED_EDGE('',*,*,#286,.T.);
#369=ORIENTED_EDGE('',*,*,#287,.T.);
#370=ORIENTED_EDGE('',*,*,#288,.F.);
#371=ORIENTED_EDGE('',*,*,#289,.F.);
#372=ORIENTED_EDGE('',*,*,#290,.F.);
#373=ORIENTED_EDGE('',*,*,#291,.F.);
#374=ORIENTED_EDGE('',*,*,#285,.F.);
#375=ORIENTED_EDGE('',*,*,#292,.F.);
#376=ORIENTED_EDGE('',*,*,#284,.F.);
#377=ORIENTED_EDGE('',*,*,#293,.T.);
#378=ORIENTED_EDGE('',*,*,#294,.F.);
#379=ORIENTED_EDGE('',*,*,#295,.T.);
#380=ORIENTED_EDGE('',*,*,#296,.F.);
#381=ORIENTED_EDGE('',*,*,#297,.F.);
#382=ORIENTED_EDGE('',*,*,#298,.T.);
#383=ORIENTED_EDGE('',*,*,#299,.T.);
#384=ORIENTED_EDGE('',*,*,#296,.T.);
#385=ORIENTED_EDGE('',*,*,#300,.T.);
#386=ORIENTED_EDGE('',*,*,#301,.T.);
#387=ORIENTED_EDGE('',*,*,#301,.F.);
#388=ORIENTED_EDGE('',*,*,#302,.T.);
#389=ORIENTED_EDGE('',*,*,#303,.F.);
#390=ORIENTED_EDGE('',*,*,#304,.F.);
#391=ORIENTED_EDGE('',*,*,#290,.T.);
#392=ORIENTED_EDGE('',*,*,#305,.F.);
#393=ORIENTED_EDGE('',*,*,#300,.F.);
#394=ORIENTED_EDGE('',*,*,#295,.F.);
#395=ORIENTED_EDGE('',*,*,#306,.F.);
#396=ORIENTED_EDGE('',*,*,#302,.F.);
#397=ORIENTED_EDGE('',*,*,#286,.F.);
#398=ORIENTED_EDGE('',*,*,#291,.T.);
#399=ORIENTED_EDGE('',*,*,#304,.T.);
#400=ORIENTED_EDGE('',*,*,#307,.T.);
#401=ORIENTED_EDGE('',*,*,#308,.T.);
#402=ORIENTED_EDGE('',*,*,#307,.F.);
#403=ORIENTED_EDGE('',*,*,#303,.T.);
#404=ORIENTED_EDGE('',*,*,#306,.T.);
#405=ORIENTED_EDGE('',*,*,#294,.T.);
#406=ORIENTED_EDGE('',*,*,#309,.T.);
#407=ORIENTED_EDGE('',*,*,#287,.F.);
#408=ORIENTED_EDGE('',*,*,#308,.F.);
#409=ORIENTED_EDGE('',*,*,#309,.F.);
#410=ORIENTED_EDGE('',*,*,#293,.F.);
#411=ORIENTED_EDGE('',*,*,#310,.F.);
#412=ORIENTED_EDGE('',*,*,#297,.T.);
#413=ORIENTED_EDGE('',*,*,#299,.F.);
#414=ORIENTED_EDGE('',*,*,#311,.F.);
#415=ORIENTED_EDGE('',*,*,#312,.F.);
#416=ORIENTED_EDGE('',*,*,#311,.T.);
#417=ORIENTED_EDGE('',*,*,#298,.F.);
#418=ORIENTED_EDGE('',*,*,#305,.T.);
#419=ORIENTED_EDGE('',*,*,#289,.T.);
#420=ORIENTED_EDGE('',*,*,#310,.T.);
#421=ORIENTED_EDGE('',*,*,#312,.T.);
#422=ORIENTED_EDGE('',*,*,#288,.T.);
#423=ORIENTED_EDGE('',*,*,#292,.T.);
#424=ORIENTED_EDGE('',*,*,#313,.T.);
#425=ORIENTED_EDGE('',*,*,#314,.T.);
#426=ORIENTED_EDGE('',*,*,#315,.T.);
#427=ORIENTED_EDGE('',*,*,#316,.T.);
#428=ORIENTED_EDGE('',*,*,#313,.F.);
#429=ORIENTED_EDGE('',*,*,#317,.T.);
#430=ORIENTED_EDGE('',*,*,#318,.F.);
#431=ORIENTED_EDGE('',*,*,#319,.T.);
#432=ORIENTED_EDGE('',*,*,#320,.T.);
#433=ORIENTED_EDGE('',*,*,#316,.F.);
#434=ORIENTED_EDGE('',*,*,#321,.F.);
#435=ORIENTED_EDGE('',*,*,#322,.T.);
#436=ORIENTED_EDGE('',*,*,#317,.F.);
#437=ORIENTED_EDGE('',*,*,#323,.F.);
#438=ORIENTED_EDGE('',*,*,#324,.F.);
#439=ORIENTED_EDGE('',*,*,#325,.F.);
#440=ORIENTED_EDGE('',*,*,#326,.F.);
#441=ORIENTED_EDGE('',*,*,#327,.F.);
#442=ORIENTED_EDGE('',*,*,#328,.T.);
#443=ORIENTED_EDGE('',*,*,#329,.F.);
#444=ORIENTED_EDGE('',*,*,#315,.F.);
#445=ORIENTED_EDGE('',*,*,#330,.T.);
#446=ORIENTED_EDGE('',*,*,#331,.T.);
#447=ORIENTED_EDGE('',*,*,#332,.T.);
#448=ORIENTED_EDGE('',*,*,#321,.T.);
#449=ORIENTED_EDGE('',*,*,#314,.F.);
#450=ORIENTED_EDGE('',*,*,#320,.F.);
#451=ORIENTED_EDGE('',*,*,#333,.T.);
#452=ORIENTED_EDGE('',*,*,#330,.F.);
#453=ORIENTED_EDGE('',*,*,#334,.T.);
#454=ORIENTED_EDGE('',*,*,#335,.T.);
#455=ORIENTED_EDGE('',*,*,#327,.T.);
#456=ORIENTED_EDGE('',*,*,#335,.F.);
#457=ORIENTED_EDGE('',*,*,#336,.T.);
#458=ORIENTED_EDGE('',*,*,#337,.F.);
#459=ORIENTED_EDGE('',*,*,#328,.F.);
#460=ORIENTED_EDGE('',*,*,#338,.F.);
#461=ORIENTED_EDGE('',*,*,#339,.F.);
#462=ORIENTED_EDGE('',*,*,#340,.F.);
#463=ORIENTED_EDGE('',*,*,#341,.F.);
#464=ORIENTED_EDGE('',*,*,#331,.F.);
#465=ORIENTED_EDGE('',*,*,#333,.F.);
#466=ORIENTED_EDGE('',*,*,#319,.F.);
#467=ORIENTED_EDGE('',*,*,#342,.T.);
#468=ORIENTED_EDGE('',*,*,#343,.F.);
#469=ORIENTED_EDGE('',*,*,#336,.F.);
#470=ORIENTED_EDGE('',*,*,#334,.F.);
#471=ORIENTED_EDGE('',*,*,#340,.T.);
#472=ORIENTED_EDGE('',*,*,#344,.T.);
#473=ORIENTED_EDGE('',*,*,#324,.T.);
#474=ORIENTED_EDGE('',*,*,#345,.T.);
#475=ORIENTED_EDGE('',*,*,#329,.T.);
#476=ORIENTED_EDGE('',*,*,#337,.T.);
#477=ORIENTED_EDGE('',*,*,#343,.T.);
#478=ORIENTED_EDGE('',*,*,#346,.T.);
#479=ORIENTED_EDGE('',*,*,#346,.F.);
#480=ORIENTED_EDGE('',*,*,#342,.F.);
#481=ORIENTED_EDGE('',*,*,#318,.T.);
#482=ORIENTED_EDGE('',*,*,#322,.F.);
#483=ORIENTED_EDGE('',*,*,#332,.F.);
#484=ORIENTED_EDGE('',*,*,#341,.T.);
#485=ORIENTED_EDGE('',*,*,#345,.F.);
#486=ORIENTED_EDGE('',*,*,#323,.T.);
#487=ORIENTED_EDGE('',*,*,#347,.F.);
#488=ORIENTED_EDGE('',*,*,#325,.T.);
#489=ORIENTED_EDGE('',*,*,#344,.F.);
#490=ORIENTED_EDGE('',*,*,#339,.T.);
#491=ORIENTED_EDGE('',*,*,#326,.T.);
#492=ORIENTED_EDGE('',*,*,#347,.T.);
#493=ORIENTED_EDGE('',*,*,#338,.T.);
#494=PLANE('',#572);
#495=PLANE('',#573);
#496=PLANE('',#574);
#497=PLANE('',#575);
#498=PLANE('',#576);
#499=PLANE('',#577);
#500=PLANE('',#578);
#501=PLANE('',#579);
#502=PLANE('',#580);
#503=PLANE('',#581);
#504=PLANE('',#582);
#505=PLANE('',#583);
#506=PLANE('',#584);
#507=PLANE('',#585);
#508=PLANE('',#586);
#509=PLANE('',#587);
#510=PLANE('',#588);
#511=PLANE('',#589);
#512=PLANE('',#590);
#513=PLANE('',#591);
#514=PLANE('',#592);
#515=PLANE('',#593);
#516=PLANE('',#594);
#517=PLANE('',#595);
#518=PLANE('',#596);
#519=PLANE('',#597);
#520=PLANE('',#598);
#521=PLANE('',#599);
#522=PLANE('',#600);
#523=PLANE('',#601);
#524=PLANE('',#602);
#525=ADVANCED_FACE('',(#19),#494,.T.);
#526=ADVANCED_FACE('',(#20),#495,.F.);
#527=ADVANCED_FACE('',(#21),#496,.F.);
#528=ADVANCED_FACE('',(#22),#497,.F.);
#529=ADVANCED_FACE('',(#23),#498,.F.);
#530=ADVANCED_FACE('',(#24),#499,.T.);
#531=ADVANCED_FACE('',(#25),#500,.F.);
#532=ADVANCED_FACE('',(#26),#501,.F.);
#533=ADVANCED_FACE('',(#27),#502,.T.);
#534=ADVANCED_FACE('',(#28),#503,.T.);
#535=ADVANCED_FACE('',(#29),#504,.F.);
#536=ADVANCED_FACE('',(#30),#505,.T.);
#537=ADVANCED_FACE('',(#31),#506,.T.);
#538=ADVANCED_FACE('',(#32),#507,.F.);
#539=ADVANCED_FACE('',(#33),#508,.T.);
#540=ADVANCED_FACE('',(#34),#509,.T.);
#541=ADVANCED_FACE('',(#35),#510,.T.);
#542=ADVANCED_FACE('',(#36),#511,.T.);
#543=ADVANCED_FACE('',(#37),#512,.T.);
#544=ADVANCED_FACE('',(#38),#513,.F.);
#545=ADVANCED_FACE('',(#39),#514,.F.);
#546=ADVANCED_FACE('',(#40),#515,.T.);
#547=ADVANCED_FACE('',(#41),#516,.F.);
#548=ADVANCED_FACE('',(#42),#517,.T.);
#549=ADVANCED_FACE('',(#43),#518,.T.);
#550=ADVANCED_FACE('',(#44),#519,.F.);
#551=ADVANCED_FACE('',(#45),#520,.T.);
#552=ADVANCED_FACE('',(#46),#521,.T.);
#553=ADVANCED_FACE('',(#47),#522,.F.);
#554=ADVANCED_FACE('',(#48),#523,.T.);
#555=ADVANCED_FACE('',(#49),#524,.T.);
#556=CLOSED_SHELL('',(#525,#526,#527,#528,#529));
#557=CLOSED_SHELL('',(#530,#531,#532,#533,#534,#535,#536,#537,#538,#539,
#540,#541));
#558=CLOSED_SHELL('',(#542,#543,#544,#545,#546,#547,#548,#549,#550,#551,
#552,#553,#554,#555));
#559=DERIVED_UNIT_ELEMENT(#561,1.);
#560=DERIVED_UNIT_ELEMENT(#898,-3.);
#561=(
MASS_UNIT()
NAMED_UNIT(*)
SI_UNIT(.KILO.,.GRAM.)
);
#562=DERIVED_UNIT((#559,#560));
#563=MEASURE_REPRESENTATION_ITEM('density measure',
POSITIVE_RATIO_MEASURE(7850.),#562);
#564=PROPERTY_DEFINITION_REPRESENTATION(#569,#566);
#565=PROPERTY_DEFINITION_REPRESENTATION(#570,#567);
#566=REPRESENTATION('material name',(#568),#895);
#567=REPRESENTATION('density',(#563),#895);
#568=DESCRIPTIVE_REPRESENTATION_ITEM('Steel','Steel');
#569=PROPERTY_DEFINITION('material property','material name',#905);
#570=PROPERTY_DEFINITION('material property','density of part',#905);
#571=AXIS2_PLACEMENT_3D('',#740,#603,#604);
#572=AXIS2_PLACEMENT_3D('',#741,#605,#606);
#573=AXIS2_PLACEMENT_3D('',#748,#610,#611);
#574=AXIS2_PLACEMENT_3D('',#755,#615,#616);
#575=AXIS2_PLACEMENT_3D('',#758,#619,#620);
#576=AXIS2_PLACEMENT_3D('',#760,#622,#623);
#577=AXIS2_PLACEMENT_3D('',#761,#624,#625);
#578=AXIS2_PLACEMENT_3D('',#770,#630,#631);
#579=AXIS2_PLACEMENT_3D('',#778,#636,#637);
#580=AXIS2_PLACEMENT_3D('',#790,#644,#645);
#581=AXIS2_PLACEMENT_3D('',#798,#650,#651);
#582=AXIS2_PLACEMENT_3D('',#805,#656,#657);
#583=AXIS2_PLACEMENT_3D('',#807,#659,#660);
#584=AXIS2_PLACEMENT_3D('',#811,#663,#664);
#585=AXIS2_PLACEMENT_3D('',#813,#666,#667);
#586=AXIS2_PLACEMENT_3D('',#814,#668,#669);
#587=AXIS2_PLACEMENT_3D('',#818,#672,#673);
#588=AXIS2_PLACEMENT_3D('',#820,#675,#676);
#589=AXIS2_PLACEMENT_3D('',#821,#677,#678);
#590=AXIS2_PLACEMENT_3D('',#830,#683,#684);
#591=AXIS2_PLACEMENT_3D('',#838,#689,#690);
#592=AXIS2_PLACEMENT_3D('',#842,#693,#694);
#593=AXIS2_PLACEMENT_3D('',#857,#702,#703);
#594=AXIS2_PLACEMENT_3D('',#863,#707,#708);
#595=AXIS2_PLACEMENT_3D('',#865,#710,#711);
#596=AXIS2_PLACEMENT_3D('',#869,#714,#715);
#597=AXIS2_PLACEMENT_3D('',#873,#718,#719);
#598=AXIS2_PLACEMENT_3D('',#884,#726,#727);
#599=AXIS2_PLACEMENT_3D('',#887,#730,#731);
#600=AXIS2_PLACEMENT_3D('',#889,#733,#734);
#601=AXIS2_PLACEMENT_3D('',#890,#735,#736);
#602=AXIS2_PLACEMENT_3D('',#892,#738,#739);
#603=DIRECTION('axis',(0.,0.,1.));
#604=DIRECTION('refdir',(1.,0.,0.));
#605=DIRECTION('center_axis',(0.,0.,1.));
#606=DIRECTION('ref_axis',(1.,0.,0.));
#607=DIRECTION('',(-1.,0.,0.));
#608=DIRECTION('',(0.406138466053448,-0.913811548620257,0.));
#609=DIRECTION('',(0.406138466053448,0.913811548620257,0.));
#610=DIRECTION('center_axis',(0.,0.,1.));
#611=DIRECTION('ref_axis',(1.,0.,0.));
#612=DIRECTION('',(1.,0.,0.));
#613=DIRECTION('',(0.406138466053448,0.913811548620257,0.));
#614=DIRECTION('',(-0.406138466053448,0.913811548620257,0.));
#615=DIRECTION('center_axis',(0.,1.,0.));
#616=DIRECTION('ref_axis',(0.,0.,1.));
#617=DIRECTION('',(0.,0.,1.));
#618=DIRECTION('',(0.,0.,1.));
#619=DIRECTION('center_axis',(-0.913811548620257,-0.406138466053448,0.));
#620=DIRECTION('ref_axis',(0.,0.,1.));
#621=DIRECTION('',(0.,0.,1.));
#622=DIRECTION('center_axis',(0.913811548620257,-0.406138466053448,0.));
#623=DIRECTION('ref_axis',(0.,0.,-1.));
#624=DIRECTION('center_axis',(-0.913811548620257,0.406138466053448,0.));
#625=DIRECTION('ref_axis',(0.,0.,1.));
#626=DIRECTION('',(0.406138466053448,0.913811548620257,0.));
#627=DIRECTION('',(-0.387878683407446,-0.872727037666753,-0.296475369438206));
#628=DIRECTION('',(-0.403316531802245,-0.90746219655505,0.117678107558254));
#629=DIRECTION('',(0.,0.,1.));
#630=DIRECTION('center_axis',(0.,-0.321657820081979,0.946855979956883));
#631=DIRECTION('ref_axis',(1.,0.,0.));
#632=DIRECTION('',(-0.387878683407446,0.872727037666753,0.296475369438206));
#633=DIRECTION('',(0.,0.946855979956883,0.321657820081979));
#634=DIRECTION('',(1.,0.,0.));
#635=DIRECTION('',(0.,-0.946855979956883,-0.321657820081979));
#636=DIRECTION('center_axis',(0.,0.,-1.));
#637=DIRECTION('ref_axis',(-1.,0.,0.));
#638=DIRECTION('',(0.406138466053448,-0.913811548620257,0.));
#639=DIRECTION('',(0.,1.,0.));
#640=DIRECTION('',(-0.707106781186546,0.707106781186549,0.));
#641=DIRECTION('',(1.,0.,0.));
#642=DIRECTION('',(-0.707106781186546,-0.707106781186549,0.));
#643=DIRECTION('',(0.,1.,0.));
#644=DIRECTION('center_axis',(0.707106781186549,-0.707106781186546,0.));
#645=DIRECTION('ref_axis',(0.,0.,-1.));
#646=DIRECTION('',(0.503258803726071,0.503258803726073,0.702467901718224));
#647=DIRECTION('',(0.,0.,1.));
#648=DIRECTION('',(0.,0.,-1.));
#649=DIRECTION('',(0.630786033920882,0.630786033920884,-0.451904811681315));
#650=DIRECTION('center_axis',(0.,-0.582383971241498,-0.812913839248036));
#651=DIRECTION('ref_axis',(-1.,0.,0.));
#652=DIRECTION('',(-1.,0.,0.));
#653=DIRECTION('',(0.630786033920882,-0.630786033920884,0.451904811681315));
#654=DIRECTION('',(-0.630786033920888,-0.63078603392088,0.451904811681312));
#655=DIRECTION('',(-0.630786033920888,0.63078603392088,-0.451904811681312));
#656=DIRECTION('center_axis',(0.,1.,0.));
#657=DIRECTION('ref_axis',(0.,0.,1.));
#658=DIRECTION('',(0.,0.,1.));
#659=DIRECTION('center_axis',(-0.707106781186547,0.22744642580165,-0.669528284234546));
#660=DIRECTION('ref_axis',(-0.687548521728364,0.,0.726138437399606));
#661=DIRECTION('',(-0.503258803726071,0.503258803726073,0.702467901718224));
#662=DIRECTION('',(0.,0.946855979956883,0.321657820081979));
#663=DIRECTION('center_axis',(-0.707106781186549,-0.707106781186546,0.));
#664=DIRECTION('ref_axis',(0.,0.,1.));
#665=DIRECTION('',(0.,0.,-1.));
#666=DIRECTION('center_axis',(1.,0.,0.));
#667=DIRECTION('ref_axis',(0.,1.,0.));
#668=DIRECTION('center_axis',(1.,0.,0.));
#669=DIRECTION('ref_axis',(0.,1.,0.));
#670=DIRECTION('',(0.,0.,-1.));
#671=DIRECTION('',(0.,-0.946855979956883,-0.321657820081979));
#672=DIRECTION('center_axis',(0.707106781186547,0.22744642580165,-0.669528284234546));
#673=DIRECTION('ref_axis',(-0.687548521728364,0.,-0.726138437399606));
#674=DIRECTION('',(-0.403316531802245,0.90746219655505,-0.117678107558254));
#675=DIRECTION('center_axis',(0.913811548620257,0.406138466053448,0.));
#676=DIRECTION('ref_axis',(0.,0.,-1.));
#677=DIRECTION('center_axis',(0.,-0.707106781186548,-0.707106781186548));
#678=DIRECTION('ref_axis',(-1.,0.,0.));
#679=DIRECTION('',(0.,-0.707106781186548,0.707106781186548));
#680=DIRECTION('',(-1.,0.,0.));
#681=DIRECTION('',(0.,0.707106781186548,-0.707106781186548));
#682=DIRECTION('',(1.,0.,0.));
#683=DIRECTION('center_axis',(1.,0.,0.));
#684=DIRECTION('ref_axis',(0.,1.,0.));
#685=DIRECTION('',(0.,1.,0.));
#686=DIRECTION('',(0.,0.,-1.));
#687=DIRECTION('',(0.,-1.,0.));
#688=DIRECTION('',(0.,0.,-1.));
#689=DIRECTION('center_axis',(0.,0.,1.));
#690=DIRECTION('ref_axis',(1.,0.,0.));
#691=DIRECTION('',(0.,-1.,0.));
#692=DIRECTION('',(1.,0.,0.));
#693=DIRECTION('center_axis',(0.,-0.316227766016838,0.948683298050514));
#694=DIRECTION('ref_axis',(1.,0.,0.));
#695=DIRECTION('',(1.,0.,0.));
#696=DIRECTION('',(0.688247201611687,-0.688247201611684,-0.229415733870561));
#697=DIRECTION('',(0.,-0.948683298050514,-0.316227766016838));
#698=DIRECTION('',(-0.388514344942906,-0.874157276121538,-0.291385758707179));
#699=DIRECTION('',(-0.388514344942906,0.874157276121538,0.291385758707179));
#700=DIRECTION('',(0.,-0.948683298050514,-0.316227766016838));
#701=DIRECTION('',(0.688247201611687,0.688247201611684,0.229415733870561));
#702=DIRECTION('center_axis',(-1.,0.,0.));
#703=DIRECTION('ref_axis',(0.,0.,1.));
#704=DIRECTION('',(0.,0.,1.));
#705=DIRECTION('',(0.,1.,0.));
#706=DIRECTION('',(0.,0.,-1.));
#707=DIRECTION('center_axis',(0.,1.,0.));
#708=DIRECTION('ref_axis',(0.,0.,1.));
#709=DIRECTION('',(-1.,0.,0.));
#710=DIRECTION('center_axis',(0.913811548620257,0.406138466053448,0.));
#711=DIRECTION('ref_axis',(0.,0.,-1.));
#712=DIRECTION('',(0.406138466053448,-0.913811548620257,0.));
#713=DIRECTION('',(0.,0.,-1.));
#714=DIRECTION('center_axis',(1.,0.,0.));
#715=DIRECTION('ref_axis',(0.,1.,0.));
#716=DIRECTION('',(0.,1.,0.));
#717=DIRECTION('',(0.,0.,1.));
#718=DIRECTION('center_axis',(0.,0.,-1.));
#719=DIRECTION('ref_axis',(-1.,0.,0.));
#720=DIRECTION('',(0.406138466053448,0.913811548620257,0.));
#721=DIRECTION('',(0.,1.,0.));
#722=DIRECTION('',(-0.707106781186549,0.707106781186546,0.));
#723=DIRECTION('',(-1.,0.,0.));
#724=DIRECTION('',(1.,0.,0.));
#725=DIRECTION('',(-0.707106781186549,-0.707106781186546,0.));
#726=DIRECTION('center_axis',(-0.707106781186546,-0.707106781186549,0.));
#727=DIRECTION('ref_axis',(0.,0.,1.));
#728=DIRECTION('',(0.,0.,-1.));
#729=DIRECTION('',(0.,0.,1.));
#730=DIRECTION('center_axis',(0.707106781186546,-0.707106781186549,0.));
#731=DIRECTION('ref_axis',(0.,0.,-1.));
#732=DIRECTION('',(0.,0.,-1.));
#733=DIRECTION('center_axis',(0.,1.,0.));
#734=DIRECTION('ref_axis',(0.,0.,1.));
#735=DIRECTION('center_axis',(-1.,0.,0.));
#736=DIRECTION('ref_axis',(0.,0.,1.));
#737=DIRECTION('',(0.,0.,1.));
#738=DIRECTION('center_axis',(-0.913811548620257,0.406138466053448,0.));
#739=DIRECTION('ref_axis',(0.,0.,1.));
#740=CARTESIAN_POINT('',(0.,0.,0.));
#741=CARTESIAN_POINT('Origin',(0.,-112.5,0.4));
#742=CARTESIAN_POINT('',(-100.,-225.,0.4));
#743=CARTESIAN_POINT('',(100.,-225.,0.4));
#744=CARTESIAN_POINT('',(0.,-225.,0.4));
#745=CARTESIAN_POINT('',(0.,0.,0.4));
#746=CARTESIAN_POINT('',(45.8762886597938,-103.221649484536,0.4));
#747=CARTESIAN_POINT('',(-45.8762886597938,-103.221649484536,0.4));
#748=CARTESIAN_POINT('Origin',(0.,-112.5,0.));
#749=CARTESIAN_POINT('',(-100.,-225.,0.));
#750=CARTESIAN_POINT('',(100.,-225.,0.));
#751=CARTESIAN_POINT('',(0.,-225.,0.));
#752=CARTESIAN_POINT('',(0.,0.,0.));
#753=CARTESIAN_POINT('',(-100.,-225.,0.));
#754=CARTESIAN_POINT('',(100.,-225.,0.));
#755=CARTESIAN_POINT('Origin',(0.,-225.,0.));
#756=CARTESIAN_POINT('',(100.,-225.,0.));
#757=CARTESIAN_POINT('',(-100.,-225.,0.));
#758=CARTESIAN_POINT('Origin',(50.,-112.5,0.));
#759=CARTESIAN_POINT('',(0.,0.,0.));
#760=CARTESIAN_POINT('Origin',(-50.,-112.5,0.));
#761=CARTESIAN_POINT('Origin',(-9.27835051546392,-20.8762886597938,-8.44453763480156));
#762=CARTESIAN_POINT('',(-2.2,-4.94999999999998,0.));
#763=CARTESIAN_POINT('',(-8.50455565385466E-15,0.,0.));
#764=CARTESIAN_POINT('',(-9.27835051546392,-20.8762886597938,0.));
#765=CARTESIAN_POINT('',(-1.5,-3.37499999999998,-1.14652615155486));
#766=CARTESIAN_POINT('',(-9.43667164140699,-21.2325111931657,-7.21292721367289));
#767=CARTESIAN_POINT('',(-2.2,-4.94999999999998,-0.942282911331901));
#768=CARTESIAN_POINT('',(-9.00204575809265,-20.2546029557085,1.04239118263624));
#769=CARTESIAN_POINT('',(-2.2,-4.94999999999998,-8.46866197130771));
#770=CARTESIAN_POINT('Origin',(0.,-25.,-8.49278630781386));
#771=CARTESIAN_POINT('',(1.5,-3.37499999999998,-1.14652615155486));
#772=CARTESIAN_POINT('',(9.43667164140699,-21.2325111931657,-7.21292721367289));
#773=CARTESIAN_POINT('',(1.5,-49.7159432060129,-16.8890752696031));
#774=CARTESIAN_POINT('',(1.5,-25.,-8.49278630781386));
#775=CARTESIAN_POINT('',(-1.5,-49.7159432060129,-16.8890752696031));
#776=CARTESIAN_POINT('',(0.,-49.7159432060129,-16.8890752696031));
#777=CARTESIAN_POINT('',(-1.5,-25.,-8.49278630781386));
#778=CARTESIAN_POINT('Origin',(0.,-25.,0.));
#779=CARTESIAN_POINT('',(2.2,-4.94999999999998,0.));
#780=CARTESIAN_POINT('',(9.27835051546392,-20.8762886597938,0.));
#781=CARTESIAN_POINT('',(-2.2,-49.3,0.));
#782=CARTESIAN_POINT('',(-2.2,-25.,0.));
#783=CARTESIAN_POINT('',(-1.5,-50.,0.));
#784=CARTESIAN_POINT('',(-7.55,-43.95,0.));
#785=CARTESIAN_POINT('',(1.5,-50.,0.));
#786=CARTESIAN_POINT('',(0.,-50.,0.));
#787=CARTESIAN_POINT('',(2.2,-49.3,0.));
#788=CARTESIAN_POINT('',(7.55,-43.95,0.));
#789=CARTESIAN_POINT('',(2.2,-25.,0.));
#790=CARTESIAN_POINT('Origin',(1.85,-49.65,-8.49278630781386));
#791=CARTESIAN_POINT('',(1.64202839699353,-49.8579716030065,-16.7873239426154));
#792=CARTESIAN_POINT('',(2.2,-49.3,-16.0084858213937));
#793=CARTESIAN_POINT('',(7.84555300827453,-43.6544469917255,-8.12820683491768));
#794=CARTESIAN_POINT('',(2.2,-49.3,-8.49278630781386));
#795=CARTESIAN_POINT('',(1.5,-50.,-16.6855726156277));
#796=CARTESIAN_POINT('',(1.5,-50.,-8.49278630781386));
#797=CARTESIAN_POINT('',(0.21590352886944,-51.2840964711306,-15.7656261634847));
#798=CARTESIAN_POINT('Origin',(0.,-49.8579716030065,-16.7873239426154));
#799=CARTESIAN_POINT('',(-1.5,-50.,-16.6855726156277));
#800=CARTESIAN_POINT('',(0.,-50.,-16.6855726156277));
#801=CARTESIAN_POINT('',(-1.64202839699353,-49.8579716030065,-16.7873239426154));
#802=CARTESIAN_POINT('',(-0.21590352886944,-51.2840964711306,-15.7656261634847));
#803=CARTESIAN_POINT('',(2.3368209563895,-45.8791222496235,-19.6378327856415));
#804=CARTESIAN_POINT('',(-2.3368209563895,-45.8791222496235,-19.6378327856415));
#805=CARTESIAN_POINT('Origin',(0.,-50.,-8.49278630781386));
#806=CARTESIAN_POINT('',(-1.5,-50.,-8.49278630781386));
#807=CARTESIAN_POINT('Origin',(-1.85,-25.1125802370287,-8.16138671482895));
#808=CARTESIAN_POINT('',(-2.2,-49.3,-16.0084858213937));
#809=CARTESIAN_POINT('',(-7.84555300827453,-43.6544469917255,-8.12820683491768));
#810=CARTESIAN_POINT('',(-2.2,-25.2251604740574,-7.82998712184404));
#811=CARTESIAN_POINT('Origin',(-1.85,-49.65,-8.49278630781386));
#812=CARTESIAN_POINT('',(-2.2,-49.3,-8.49278630781386));
#813=CARTESIAN_POINT('Origin',(-2.2,-25.,-8.49278630781386));
#814=CARTESIAN_POINT('Origin',(2.2,-25.,-8.49278630781386));
#815=CARTESIAN_POINT('',(2.2,-4.94999999999998,-0.942282911331901));
#816=CARTESIAN_POINT('',(2.2,-4.94999999999998,-8.46866197130771));
#817=CARTESIAN_POINT('',(2.2,-25.2251604740574,-7.82998712184404));
#818=CARTESIAN_POINT('Origin',(1.85,-25.1125802370287,-8.16138671482895));
#819=CARTESIAN_POINT('',(9.00204575809265,-20.2546029557085,1.04239118263624));
#820=CARTESIAN_POINT('Origin',(9.27835051546392,-20.8762886597938,-8.44453763480156));
#821=CARTESIAN_POINT('Origin',(0.,-205.,-21.6));
#822=CARTESIAN_POINT('',(0.375,-185.,-41.6));
#823=CARTESIAN_POINT('',(0.375,-225.,-1.6));
#824=CARTESIAN_POINT('',(0.375,-193.525000232831,-33.0749997671694));
#825=CARTESIAN_POINT('',(-0.375,-225.,-1.6));
#826=CARTESIAN_POINT('',(0.,-225.,-1.6));
#827=CARTESIAN_POINT('',(-0.375,-185.,-41.6));
#828=CARTESIAN_POINT('',(-0.375,-193.525000232831,-33.0749997671694));
#829=CARTESIAN_POINT('',(0.,-185.,-41.6));
#830=CARTESIAN_POINT('Origin',(0.375,-175.000000931323,-37.5));
#831=CARTESIAN_POINT('',(0.375,-125.000001862645,-41.6));
#832=CARTESIAN_POINT('',(0.375,-143.750000465661,-41.6));
#833=CARTESIAN_POINT('',(0.375,-125.000001862645,0.));
#834=CARTESIAN_POINT('',(0.375,-125.000001862645,0.));
#835=CARTESIAN_POINT('',(0.375,-225.,0.));
#836=CARTESIAN_POINT('',(0.375,0.,0.));
#837=CARTESIAN_POINT('',(0.375,-225.,0.));
#838=CARTESIAN_POINT('Origin',(0.,-112.5,-41.6));
#839=CARTESIAN_POINT('',(-0.375,-125.000001862645,-41.6));
#840=CARTESIAN_POINT('',(-0.375,-143.750000465661,-41.6));
#841=CARTESIAN_POINT('',(0.,-125.000001862645,-41.6));
#842=CARTESIAN_POINT('Origin',(0.,-175.000000931323,-58.3333336437742));
#843=CARTESIAN_POINT('',(-0.5,-125.000001862645,-41.6666672875484));
#844=CARTESIAN_POINT('',(0.5,-125.000001862645,-41.6666672875484));
#845=CARTESIAN_POINT('',(0.,-125.000001862645,-41.6666672875484));
#846=CARTESIAN_POINT('',(-1.5,-124.000001862645,-41.3333339542151));
#847=CARTESIAN_POINT('',(11.7171050058188,-137.217106868464,-45.7390356228213));
#848=CARTESIAN_POINT('',(-1.5,-3.37499999999998,-1.125));
#849=CARTESIAN_POINT('',(-1.5,0.,0.));
#850=CARTESIAN_POINT('',(9.7194921758339E-15,0.,0.));
#851=CARTESIAN_POINT('',(-54.2452831945892,-122.051887187826,-40.6839623959419));
#852=CARTESIAN_POINT('',(1.5,-3.37499999999997,-1.12499999999999));
#853=CARTESIAN_POINT('',(54.2452831945892,-122.051887187826,-40.6839623959419));
#854=CARTESIAN_POINT('',(1.5,-124.000001862645,-41.333333954215));
#855=CARTESIAN_POINT('',(1.5,-118.750000931323,-39.5833336437742));
#856=CARTESIAN_POINT('',(-10.8947365725119,-136.394738435157,-45.464912811719));
#857=CARTESIAN_POINT('Origin',(-0.375,-175.000000931323,-37.5));
#858=CARTESIAN_POINT('',(-0.375,-225.,0.));
#859=CARTESIAN_POINT('',(-0.375,-225.,0.));
#860=CARTESIAN_POINT('',(-0.375,-125.000001862645,0.));
#861=CARTESIAN_POINT('',(-0.375,0.,0.));
#862=CARTESIAN_POINT('',(-0.375,-125.000001862645,0.));
#863=CARTESIAN_POINT('Origin',(0.,-225.,-37.5));
#864=CARTESIAN_POINT('',(0.,-225.,0.));
#865=CARTESIAN_POINT('Origin',(41.7525773195876,-93.9432989690722,-37.5));
#866=CARTESIAN_POINT('',(1.5,-3.37499999999999,0.));
#867=CARTESIAN_POINT('',(53.3505156367403,-120.038660182666,0.));
#868=CARTESIAN_POINT('',(1.5,-3.37499999999998,-29.1666668218871));
#869=CARTESIAN_POINT('Origin',(1.5,-62.5000009313226,-20.8333336437742));
#870=CARTESIAN_POINT('',(1.5,-124.000001862645,0.));
#871=CARTESIAN_POINT('',(1.5,-118.750000931323,0.));
#872=CARTESIAN_POINT('',(1.5,-124.000001862645,-20.8333336437742));
#873=CARTESIAN_POINT('Origin',(0.,-175.000000931323,0.));
#874=CARTESIAN_POINT('',(-1.5,-3.37499999999998,0.));
#875=CARTESIAN_POINT('',(-53.3505156367403,-120.038660182666,0.));
#876=CARTESIAN_POINT('',(-1.5,-124.000001862645,0.));
#877=CARTESIAN_POINT('',(-1.5,0.,0.));
#878=CARTESIAN_POINT('',(-0.5,-125.000001862645,0.));
#879=CARTESIAN_POINT('',(11.8749997671694,-137.375001629814,0.));
#880=CARTESIAN_POINT('',(0.,-125.000001862645,0.));
#881=CARTESIAN_POINT('',(0.5,-125.000001862645,0.));
#882=CARTESIAN_POINT('',(0.,-125.000001862645,0.));
#883=CARTESIAN_POINT('',(-11.8749997671694,-137.375001629814,0.));
#884=CARTESIAN_POINT('Origin',(-1.,-124.500001862645,-31.2500004656613));
#885=CARTESIAN_POINT('',(-1.5,-124.000001862645,-31.2500004656613));
#886=CARTESIAN_POINT('',(-0.5,-125.000001862645,-31.2500004656613));
#887=CARTESIAN_POINT('Origin',(1.,-124.500001862645,-20.8333336437742));
#888=CARTESIAN_POINT('',(0.5,-125.000001862645,-20.8333336437742));
#889=CARTESIAN_POINT('Origin',(0.,-125.000001862645,-20.8333336437742));
#890=CARTESIAN_POINT('Origin',(-1.5,-62.5000009313226,-20.8333336437742));
#891=CARTESIAN_POINT('',(-1.5,-3.37499999999998,-29.1666668218871));
#892=CARTESIAN_POINT('Origin',(-41.7525773195876,-93.9432989690722,-37.5));
#893=UNCERTAINTY_MEASURE_WITH_UNIT(LENGTH_MEASURE(0.01),#897,
'DISTANCE_ACCURACY_VALUE',
'Maximum model space distance between geometric entities at asserted c
onnectivities');
#894=UNCERTAINTY_MEASURE_WITH_UNIT(LENGTH_MEASURE(0.01),#897,
'DISTANCE_ACCURACY_VALUE',
'Maximum model space distance between geometric entities at asserted c
onnectivities');
#895=(
GEOMETRIC_REPRESENTATION_CONTEXT(3)
GLOBAL_UNCERTAINTY_ASSIGNED_CONTEXT((#893))
GLOBAL_UNIT_ASSIGNED_CONTEXT((#897,#899,#900))
REPRESENTATION_CONTEXT('','3D')
);
#896=(
GEOMETRIC_REPRESENTATION_CONTEXT(3)
GLOBAL_UNCERTAINTY_ASSIGNED_CONTEXT((#894))
GLOBAL_UNIT_ASSIGNED_CONTEXT((#897,#899,#900))
REPRESENTATION_CONTEXT('','3D')
);
#897=(
LENGTH_UNIT()
NAMED_UNIT(*)
SI_UNIT(.MILLI.,.METRE.)
);
#898=(
LENGTH_UNIT()
NAMED_UNIT(*)
SI_UNIT($,.METRE.)
);
#899=(
NAMED_UNIT(*)
PLANE_ANGLE_UNIT()
SI_UNIT($,.RADIAN.)
);
#900=(
NAMED_UNIT(*)
SI_UNIT($,.STERADIAN.)
SOLID_ANGLE_UNIT()
);
#901=SHAPE_DEFINITION_REPRESENTATION(#902,#903);
#902=PRODUCT_DEFINITION_SHAPE('',$,#905);
#903=SHAPE_REPRESENTATION('',(#571),#895);
#904=PRODUCT_DEFINITION_CONTEXT('part definition',#909,'design');
#905=PRODUCT_DEFINITION('2026-10-06-16-16-40-889','Plane_N',#906,#904);
#906=PRODUCT_DEFINITION_FORMATION('',$,#911);
#907=PRODUCT_RELATED_PRODUCT_CATEGORY('Plane_N','Plane_N',(#911));
#908=APPLICATION_PROTOCOL_DEFINITION('international standard',
'automotive_design',2009,#909);
#909=APPLICATION_CONTEXT(
'Core Data for Automotive Mechanical Design Process');
#910=PRODUCT_CONTEXT('part definition',#909,'mechanical');
#911=PRODUCT('2026-10-06-16-16-40-889','Plane_N',$,(#910));
#912=PRESENTATION_STYLE_ASSIGNMENT((#914));
#913=PRESENTATION_STYLE_ASSIGNMENT((#915));
#914=SURFACE_STYLE_USAGE(.BOTH.,#916);
#915=SURFACE_STYLE_USAGE(.BOTH.,#917);
#916=SURFACE_SIDE_STYLE('',(#918));
#917=SURFACE_SIDE_STYLE('',(#919));
#918=SURFACE_STYLE_FILL_AREA(#920);
#919=SURFACE_STYLE_FILL_AREA(#921);
#920=FILL_AREA_STYLE('Steel - Satin',(#922));
#921=FILL_AREA_STYLE('ABS (White)',(#923));
#922=FILL_AREA_STYLE_COLOUR('Steel - Satin',#924);
#923=FILL_AREA_STYLE_COLOUR('ABS (White)',#925);
#924=COLOUR_RGB('Steel - Satin',0.627450980392157,0.627450980392157,0.627450980392157);
#925=COLOUR_RGB('ABS (White)',0.964705882352941,0.964705882352941,0.952941176470588);
ENDSEC;
END-ISO-10303-21;
