ISO-10303-21;
HEADER;
/* Generated by software containing ST-Developer
 * from STEP Tools, Inc. (www.steptools.com) 
 */

FILE_DESCRIPTION(
/* description */ (''),
/* implementation_level */ '2;1');

FILE_NAME(
/* name */ 'Plane_W STEP -- 001 Rev F.step',
/* time_stamp */ '2026-10-07T19:30:44+02:00',
/* author */ (''),
/* organization */ (''),
/* preprocessor_version */ 'ST-DEVELOPER v20.1',
/* originating_system */ 'Autodesk Translation Framework v15.8.0.0',
/* authorisation */ '');

FILE_SCHEMA (('AUTOMOTIVE_DESIGN { 1 0 10303 214 3 1 1 }'));
ENDSEC;

DATA;
#10=MECHANICAL_DESIGN_GEOMETRIC_PRESENTATION_REPRESENTATION('',(#13),#612);
#11=SHAPE_REPRESENTATION_RELATIONSHIP('SRR','None',#619,#12);
#12=ADVANCED_BREP_SHAPE_REPRESENTATION('',(#14),#611);
#13=STYLED_ITEM('',(#628),#14);
#14=MANIFOLD_SOLID_BREP('Body38',#380);
#15=FACE_OUTER_BOUND('',#34,.T.);
#16=FACE_OUTER_BOUND('',#35,.T.);
#17=FACE_OUTER_BOUND('',#36,.T.);
#18=FACE_OUTER_BOUND('',#37,.T.);
#19=FACE_OUTER_BOUND('',#38,.T.);
#20=FACE_OUTER_BOUND('',#39,.T.);
#21=FACE_OUTER_BOUND('',#40,.T.);
#22=FACE_OUTER_BOUND('',#41,.T.);
#23=FACE_OUTER_BOUND('',#42,.T.);
#24=FACE_OUTER_BOUND('',#43,.T.);
#25=FACE_OUTER_BOUND('',#44,.T.);
#26=FACE_OUTER_BOUND('',#45,.T.);
#27=FACE_OUTER_BOUND('',#46,.T.);
#28=FACE_OUTER_BOUND('',#47,.T.);
#29=FACE_OUTER_BOUND('',#48,.T.);
#30=FACE_OUTER_BOUND('',#49,.T.);
#31=FACE_OUTER_BOUND('',#50,.T.);
#32=FACE_OUTER_BOUND('',#51,.T.);
#33=FACE_OUTER_BOUND('',#52,.T.);
#34=EDGE_LOOP('',(#240,#241,#242,#243,#244,#245));
#35=EDGE_LOOP('',(#246,#247,#248,#249,#250));
#36=EDGE_LOOP('',(#251,#252,#253,#254,#255));
#37=EDGE_LOOP('',(#256,#257,#258,#259,#260));
#38=EDGE_LOOP('',(#261,#262,#263));
#39=EDGE_LOOP('',(#264,#265,#266,#267,#268,#269,#270));
#40=EDGE_LOOP('',(#271,#272,#273,#274));
#41=EDGE_LOOP('',(#275,#276,#277,#278,#279,#280));
#42=EDGE_LOOP('',(#281,#282,#283,#284));
#43=EDGE_LOOP('',(#285,#286,#287,#288,#289,#290,#291,#292,#293));
#44=EDGE_LOOP('',(#294,#295,#296,#297,#298,#299));
#45=EDGE_LOOP('',(#300,#301,#302,#303,#304,#305));
#46=EDGE_LOOP('',(#306,#307,#308,#309));
#47=EDGE_LOOP('',(#310,#311,#312,#313,#314));
#48=EDGE_LOOP('',(#315,#316,#317,#318));
#49=EDGE_LOOP('',(#319,#320,#321,#322,#323,#324,#325,#326,#327,#328));
#50=EDGE_LOOP('',(#329,#330,#331,#332));
#51=EDGE_LOOP('',(#333,#334,#335,#336));
#52=EDGE_LOOP('',(#337,#338,#339,#340,#341));
#53=LINE('',#508,#104);
#54=LINE('',#510,#105);
#55=LINE('',#512,#106);
#56=LINE('',#514,#107);
#57=LINE('',#516,#108);
#58=LINE('',#517,#109);
#59=LINE('',#520,#110);
#60=LINE('',#522,#111);
#61=LINE('',#524,#112);
#62=LINE('',#525,#113);
#63=LINE('',#528,#114);
#64=LINE('',#530,#115);
#65=LINE('',#531,#116);
#66=LINE('',#534,#117);
#67=LINE('',#536,#118);
#68=LINE('',#537,#119);
#69=LINE('',#541,#120);
#70=LINE('',#543,#121);
#71=LINE('',#544,#122);
#72=LINE('',#547,#123);
#73=LINE('',#549,#124);
#74=LINE('',#551,#125);
#75=LINE('',#553,#126);
#76=LINE('',#555,#127);
#77=LINE('',#556,#128);
#78=LINE('',#559,#129);
#79=LINE('',#560,#130);
#80=LINE('',#562,#131);
#81=LINE('',#564,#132);
#82=LINE('',#565,#133);
#83=LINE('',#568,#134);
#84=LINE('',#569,#135);
#85=LINE('',#572,#136);
#86=LINE('',#574,#137);
#87=LINE('',#576,#138);
#88=LINE('',#578,#139);
#89=LINE('',#579,#140);
#90=LINE('',#581,#141);
#91=LINE('',#583,#142);
#92=LINE('',#586,#143);
#93=LINE('',#587,#144);
#94=LINE('',#590,#145);
#95=LINE('',#592,#146);
#96=LINE('',#593,#147);
#97=LINE('',#596,#148);
#98=LINE('',#597,#149);
#99=LINE('',#600,#150);
#100=LINE('',#602,#151);
#101=LINE('',#603,#152);
#102=LINE('',#605,#153);
#103=LINE('',#607,#154);
#104=VECTOR('',#417,10.);
#105=VECTOR('',#418,10.);
#106=VECTOR('',#419,10.);
#107=VECTOR('',#420,10.);
#108=VECTOR('',#421,10.);
#109=VECTOR('',#422,10.);
#110=VECTOR('',#425,10.);
#111=VECTOR('',#426,10.);
#112=VECTOR('',#427,10.);
#113=VECTOR('',#428,10.);
#114=VECTOR('',#431,10.);
#115=VECTOR('',#432,10.);
#116=VECTOR('',#433,10.);
#117=VECTOR('',#436,10.);
#118=VECTOR('',#437,10.);
#119=VECTOR('',#438,10.);
#120=VECTOR('',#441,10.);
#121=VECTOR('',#442,10.);
#122=VECTOR('',#443,10.);
#123=VECTOR('',#446,10.);
#124=VECTOR('',#447,10.);
#125=VECTOR('',#448,10.);
#126=VECTOR('',#449,10.);
#127=VECTOR('',#450,10.);
#128=VECTOR('',#451,10.);
#129=VECTOR('',#454,10.);
#130=VECTOR('',#455,10.);
#131=VECTOR('',#458,10.);
#132=VECTOR('',#459,10.);
#133=VECTOR('',#460,10.);
#134=VECTOR('',#463,10.);
#135=VECTOR('',#464,10.);
#136=VECTOR('',#467,10.);
#137=VECTOR('',#468,10.);
#138=VECTOR('',#469,10.);
#139=VECTOR('',#470,10.);
#140=VECTOR('',#471,10.);
#141=VECTOR('',#474,10.);
#142=VECTOR('',#477,10.);
#143=VECTOR('',#480,10.);
#144=VECTOR('',#481,10.);
#145=VECTOR('',#484,10.);
#146=VECTOR('',#485,10.);
#147=VECTOR('',#486,10.);
#148=VECTOR('',#489,10.);
#149=VECTOR('',#490,10.);
#150=VECTOR('',#493,10.);
#151=VECTOR('',#494,10.);
#152=VECTOR('',#495,10.);
#153=VECTOR('',#498,10.);
#154=VECTOR('',#501,10.);
#155=VERTEX_POINT('',#506);
#156=VERTEX_POINT('',#507);
#157=VERTEX_POINT('',#509);
#158=VERTEX_POINT('',#511);
#159=VERTEX_POINT('',#513);
#160=VERTEX_POINT('',#515);
#161=VERTEX_POINT('',#519);
#162=VERTEX_POINT('',#521);
#163=VERTEX_POINT('',#523);
#164=VERTEX_POINT('',#527);
#165=VERTEX_POINT('',#529);
#166=VERTEX_POINT('',#533);
#167=VERTEX_POINT('',#535);
#168=VERTEX_POINT('',#539);
#169=VERTEX_POINT('',#540);
#170=VERTEX_POINT('',#542);
#171=VERTEX_POINT('',#546);
#172=VERTEX_POINT('',#548);
#173=VERTEX_POINT('',#550);
#174=VERTEX_POINT('',#552);
#175=VERTEX_POINT('',#554);
#176=VERTEX_POINT('',#558);
#177=VERTEX_POINT('',#563);
#178=VERTEX_POINT('',#567);
#179=VERTEX_POINT('',#571);
#180=VERTEX_POINT('',#573);
#181=VERTEX_POINT('',#575);
#182=VERTEX_POINT('',#577);
#183=VERTEX_POINT('',#585);
#184=VERTEX_POINT('',#589);
#185=VERTEX_POINT('',#591);
#186=VERTEX_POINT('',#595);
#187=VERTEX_POINT('',#599);
#188=VERTEX_POINT('',#601);
#189=EDGE_CURVE('',#155,#156,#53,.T.);
#190=EDGE_CURVE('',#156,#157,#54,.T.);
#191=EDGE_CURVE('',#157,#158,#55,.T.);
#192=EDGE_CURVE('',#158,#159,#56,.T.);
#193=EDGE_CURVE('',#159,#160,#57,.T.);
#194=EDGE_CURVE('',#160,#155,#58,.T.);
#195=EDGE_CURVE('',#157,#161,#59,.T.);
#196=EDGE_CURVE('',#162,#161,#60,.T.);
#197=EDGE_CURVE('',#163,#162,#61,.T.);
#198=EDGE_CURVE('',#163,#158,#62,.T.);
#199=EDGE_CURVE('',#164,#156,#63,.T.);
#200=EDGE_CURVE('',#165,#164,#64,.F.);
#201=EDGE_CURVE('',#161,#165,#65,.F.);
#202=EDGE_CURVE('',#155,#166,#66,.T.);
#203=EDGE_CURVE('',#167,#166,#67,.T.);
#204=EDGE_CURVE('',#164,#167,#68,.T.);
#205=EDGE_CURVE('',#168,#169,#69,.T.);
#206=EDGE_CURVE('',#169,#170,#70,.T.);
#207=EDGE_CURVE('',#170,#168,#71,.T.);
#208=EDGE_CURVE('',#166,#171,#72,.T.);
#209=EDGE_CURVE('',#171,#172,#73,.T.);
#210=EDGE_CURVE('',#172,#173,#74,.T.);
#211=EDGE_CURVE('',#173,#174,#75,.T.);
#212=EDGE_CURVE('',#175,#174,#76,.T.);
#213=EDGE_CURVE('',#175,#167,#77,.T.);
#214=EDGE_CURVE('',#176,#163,#78,.T.);
#215=EDGE_CURVE('',#159,#176,#79,.T.);
#216=EDGE_CURVE('',#165,#170,#80,.T.);
#217=EDGE_CURVE('',#177,#169,#81,.T.);
#218=EDGE_CURVE('',#162,#177,#82,.T.);
#219=EDGE_CURVE('',#176,#178,#83,.F.);
#220=EDGE_CURVE('',#178,#160,#84,.T.);
#221=EDGE_CURVE('',#179,#177,#85,.T.);
#222=EDGE_CURVE('',#179,#180,#86,.T.);
#223=EDGE_CURVE('',#180,#181,#87,.T.);
#224=EDGE_CURVE('',#181,#182,#88,.T.);
#225=EDGE_CURVE('',#182,#178,#89,.T.);
#226=EDGE_CURVE('',#175,#168,#90,.T.);
#227=EDGE_CURVE('',#174,#179,#91,.T.);
#228=EDGE_CURVE('',#183,#173,#92,.T.);
#229=EDGE_CURVE('',#171,#183,#93,.T.);
#230=EDGE_CURVE('',#184,#183,#94,.T.);
#231=EDGE_CURVE('',#185,#184,#95,.T.);
#232=EDGE_CURVE('',#174,#185,#96,.T.);
#233=EDGE_CURVE('',#186,#185,#97,.T.);
#234=EDGE_CURVE('',#186,#179,#98,.T.);
#235=EDGE_CURVE('',#187,#182,#99,.T.);
#236=EDGE_CURVE('',#187,#188,#100,.T.);
#237=EDGE_CURVE('',#188,#184,#101,.T.);
#238=EDGE_CURVE('',#180,#187,#102,.T.);
#239=EDGE_CURVE('',#188,#186,#103,.T.);
#240=ORIENTED_EDGE('',*,*,#189,.T.);
#241=ORIENTED_EDGE('',*,*,#190,.T.);
#242=ORIENTED_EDGE('',*,*,#191,.T.);
#243=ORIENTED_EDGE('',*,*,#192,.T.);
#244=ORIENTED_EDGE('',*,*,#193,.T.);
#245=ORIENTED_EDGE('',*,*,#194,.T.);
#246=ORIENTED_EDGE('',*,*,#191,.F.);
#247=ORIENTED_EDGE('',*,*,#195,.T.);
#248=ORIENTED_EDGE('',*,*,#196,.F.);
#249=ORIENTED_EDGE('',*,*,#197,.F.);
#250=ORIENTED_EDGE('',*,*,#198,.T.);
#251=ORIENTED_EDGE('',*,*,#190,.F.);
#252=ORIENTED_EDGE('',*,*,#199,.F.);
#253=ORIENTED_EDGE('',*,*,#200,.F.);
#254=ORIENTED_EDGE('',*,*,#201,.F.);
#255=ORIENTED_EDGE('',*,*,#195,.F.);
#256=ORIENTED_EDGE('',*,*,#189,.F.);
#257=ORIENTED_EDGE('',*,*,#202,.T.);
#258=ORIENTED_EDGE('',*,*,#203,.F.);
#259=ORIENTED_EDGE('',*,*,#204,.F.);
#260=ORIENTED_EDGE('',*,*,#199,.T.);
#261=ORIENTED_EDGE('',*,*,#205,.T.);
#262=ORIENTED_EDGE('',*,*,#206,.T.);
#263=ORIENTED_EDGE('',*,*,#207,.T.);
#264=ORIENTED_EDGE('',*,*,#203,.T.);
#265=ORIENTED_EDGE('',*,*,#208,.T.);
#266=ORIENTED_EDGE('',*,*,#209,.T.);
#267=ORIENTED_EDGE('',*,*,#210,.T.);
#268=ORIENTED_EDGE('',*,*,#211,.T.);
#269=ORIENTED_EDGE('',*,*,#212,.F.);
#270=ORIENTED_EDGE('',*,*,#213,.T.);
#271=ORIENTED_EDGE('',*,*,#192,.F.);
#272=ORIENTED_EDGE('',*,*,#198,.F.);
#273=ORIENTED_EDGE('',*,*,#214,.F.);
#274=ORIENTED_EDGE('',*,*,#215,.F.);
#275=ORIENTED_EDGE('',*,*,#201,.T.);
#276=ORIENTED_EDGE('',*,*,#216,.T.);
#277=ORIENTED_EDGE('',*,*,#206,.F.);
#278=ORIENTED_EDGE('',*,*,#217,.F.);
#279=ORIENTED_EDGE('',*,*,#218,.F.);
#280=ORIENTED_EDGE('',*,*,#196,.T.);
#281=ORIENTED_EDGE('',*,*,#193,.F.);
#282=ORIENTED_EDGE('',*,*,#215,.T.);
#283=ORIENTED_EDGE('',*,*,#219,.T.);
#284=ORIENTED_EDGE('',*,*,#220,.T.);
#285=ORIENTED_EDGE('',*,*,#197,.T.);
#286=ORIENTED_EDGE('',*,*,#218,.T.);
#287=ORIENTED_EDGE('',*,*,#221,.F.);
#288=ORIENTED_EDGE('',*,*,#222,.T.);
#289=ORIENTED_EDGE('',*,*,#223,.T.);
#290=ORIENTED_EDGE('',*,*,#224,.T.);
#291=ORIENTED_EDGE('',*,*,#225,.T.);
#292=ORIENTED_EDGE('',*,*,#219,.F.);
#293=ORIENTED_EDGE('',*,*,#214,.T.);
#294=ORIENTED_EDGE('',*,*,#213,.F.);
#295=ORIENTED_EDGE('',*,*,#226,.T.);
#296=ORIENTED_EDGE('',*,*,#207,.F.);
#297=ORIENTED_EDGE('',*,*,#216,.F.);
#298=ORIENTED_EDGE('',*,*,#200,.T.);
#299=ORIENTED_EDGE('',*,*,#204,.T.);
#300=ORIENTED_EDGE('',*,*,#212,.T.);
#301=ORIENTED_EDGE('',*,*,#227,.T.);
#302=ORIENTED_EDGE('',*,*,#221,.T.);
#303=ORIENTED_EDGE('',*,*,#217,.T.);
#304=ORIENTED_EDGE('',*,*,#205,.F.);
#305=ORIENTED_EDGE('',*,*,#226,.F.);
#306=ORIENTED_EDGE('',*,*,#228,.T.);
#307=ORIENTED_EDGE('',*,*,#210,.F.);
#308=ORIENTED_EDGE('',*,*,#209,.F.);
#309=ORIENTED_EDGE('',*,*,#229,.T.);
#310=ORIENTED_EDGE('',*,*,#230,.F.);
#311=ORIENTED_EDGE('',*,*,#231,.F.);
#312=ORIENTED_EDGE('',*,*,#232,.F.);
#313=ORIENTED_EDGE('',*,*,#211,.F.);
#314=ORIENTED_EDGE('',*,*,#228,.F.);
#315=ORIENTED_EDGE('',*,*,#233,.F.);
#316=ORIENTED_EDGE('',*,*,#234,.T.);
#317=ORIENTED_EDGE('',*,*,#227,.F.);
#318=ORIENTED_EDGE('',*,*,#232,.T.);
#319=ORIENTED_EDGE('',*,*,#194,.F.);
#320=ORIENTED_EDGE('',*,*,#220,.F.);
#321=ORIENTED_EDGE('',*,*,#225,.F.);
#322=ORIENTED_EDGE('',*,*,#235,.F.);
#323=ORIENTED_EDGE('',*,*,#236,.T.);
#324=ORIENTED_EDGE('',*,*,#237,.T.);
#325=ORIENTED_EDGE('',*,*,#230,.T.);
#326=ORIENTED_EDGE('',*,*,#229,.F.);
#327=ORIENTED_EDGE('',*,*,#208,.F.);
#328=ORIENTED_EDGE('',*,*,#202,.F.);
#329=ORIENTED_EDGE('',*,*,#238,.T.);
#330=ORIENTED_EDGE('',*,*,#235,.T.);
#331=ORIENTED_EDGE('',*,*,#224,.F.);
#332=ORIENTED_EDGE('',*,*,#223,.F.);
#333=ORIENTED_EDGE('',*,*,#231,.T.);
#334=ORIENTED_EDGE('',*,*,#237,.F.);
#335=ORIENTED_EDGE('',*,*,#239,.T.);
#336=ORIENTED_EDGE('',*,*,#233,.T.);
#337=ORIENTED_EDGE('',*,*,#239,.F.);
#338=ORIENTED_EDGE('',*,*,#236,.F.);
#339=ORIENTED_EDGE('',*,*,#238,.F.);
#340=ORIENTED_EDGE('',*,*,#222,.F.);
#341=ORIENTED_EDGE('',*,*,#234,.F.);
#342=PLANE('',#394);
#343=PLANE('',#395);
#344=PLANE('',#396);
#345=PLANE('',#397);
#346=PLANE('',#398);
#347=PLANE('',#399);
#348=PLANE('',#400);
#349=PLANE('',#401);
#350=PLANE('',#402);
#351=PLANE('',#403);
#352=PLANE('',#404);
#353=PLANE('',#405);
#354=PLANE('',#406);
#355=PLANE('',#407);
#356=PLANE('',#408);
#357=PLANE('',#409);
#358=PLANE('',#410);
#359=PLANE('',#411);
#360=PLANE('',#412);
#361=ADVANCED_FACE('',(#15),#342,.T.);
#362=ADVANCED_FACE('',(#16),#343,.T.);
#363=ADVANCED_FACE('',(#17),#344,.F.);
#364=ADVANCED_FACE('',(#18),#345,.T.);
#365=ADVANCED_FACE('',(#19),#346,.T.);
#366=ADVANCED_FACE('',(#20),#347,.F.);
#367=ADVANCED_FACE('',(#21),#348,.T.);
#368=ADVANCED_FACE('',(#22),#349,.F.);
#369=ADVANCED_FACE('',(#23),#350,.T.);
#370=ADVANCED_FACE('',(#24),#351,.F.);
#371=ADVANCED_FACE('',(#25),#352,.F.);
#372=ADVANCED_FACE('',(#26),#353,.F.);
#373=ADVANCED_FACE('',(#27),#354,.F.);
#374=ADVANCED_FACE('',(#28),#355,.F.);
#375=ADVANCED_FACE('',(#29),#356,.T.);
#376=ADVANCED_FACE('',(#30),#357,.F.);
#377=ADVANCED_FACE('',(#31),#358,.F.);
#378=ADVANCED_FACE('',(#32),#359,.F.);
#379=ADVANCED_FACE('',(#33),#360,.T.);
#380=CLOSED_SHELL('',(#361,#362,#363,#364,#365,#366,#367,#368,#369,#370,
#371,#372,#373,#374,#375,#376,#377,#378,#379));
#381=DERIVED_UNIT_ELEMENT(#383,1.);
#382=DERIVED_UNIT_ELEMENT(#614,-3.);
#383=(
MASS_UNIT()
NAMED_UNIT(*)
SI_UNIT(.KILO.,.GRAM.)
);
#384=DERIVED_UNIT((#381,#382));
#385=MEASURE_REPRESENTATION_ITEM('density measure',
POSITIVE_RATIO_MEASURE(1100.),#384);
#386=PROPERTY_DEFINITION_REPRESENTATION(#391,#388);
#387=PROPERTY_DEFINITION_REPRESENTATION(#392,#389);
#388=REPRESENTATION('material name',(#390),#611);
#389=REPRESENTATION('density',(#385),#611);
#390=DESCRIPTIVE_REPRESENTATION_ITEM('PC/ABS Plastic','PC/ABS Plastic');
#391=PROPERTY_DEFINITION('material property','material name',#621);
#392=PROPERTY_DEFINITION('material property','density of part',#621);
#393=AXIS2_PLACEMENT_3D('',#504,#413,#414);
#394=AXIS2_PLACEMENT_3D('',#505,#415,#416);
#395=AXIS2_PLACEMENT_3D('',#518,#423,#424);
#396=AXIS2_PLACEMENT_3D('',#526,#429,#430);
#397=AXIS2_PLACEMENT_3D('',#532,#434,#435);
#398=AXIS2_PLACEMENT_3D('',#538,#439,#440);
#399=AXIS2_PLACEMENT_3D('',#545,#444,#445);
#400=AXIS2_PLACEMENT_3D('',#557,#452,#453);
#401=AXIS2_PLACEMENT_3D('',#561,#456,#457);
#402=AXIS2_PLACEMENT_3D('',#566,#461,#462);
#403=AXIS2_PLACEMENT_3D('',#570,#465,#466);
#404=AXIS2_PLACEMENT_3D('',#580,#472,#473);
#405=AXIS2_PLACEMENT_3D('',#582,#475,#476);
#406=AXIS2_PLACEMENT_3D('',#584,#478,#479);
#407=AXIS2_PLACEMENT_3D('',#588,#482,#483);
#408=AXIS2_PLACEMENT_3D('',#594,#487,#488);
#409=AXIS2_PLACEMENT_3D('',#598,#491,#492);
#410=AXIS2_PLACEMENT_3D('',#604,#496,#497);
#411=AXIS2_PLACEMENT_3D('',#606,#499,#500);
#412=AXIS2_PLACEMENT_3D('',#608,#502,#503);
#413=DIRECTION('axis',(0.,0.,1.));
#414=DIRECTION('refdir',(1.,0.,0.));
#415=DIRECTION('center_axis',(0.,-0.584710254744848,-0.811242206739896));
#416=DIRECTION('ref_axis',(-1.,0.,0.));
#417=DIRECTION('',(0.,0.811242206739896,-0.584710254744848));
#418=DIRECTION('',(1.,0.,0.));
#419=DIRECTION('',(0.,-0.811242206739896,0.584710254744848));
#420=DIRECTION('',(-1.,0.,0.));
#421=DIRECTION('',(-0.630004052008203,-0.630004082456724,0.454081215798568));
#422=DIRECTION('',(-1.,0.,0.));
#423=DIRECTION('center_axis',(1.,0.,0.));
#424=DIRECTION('ref_axis',(0.,1.,0.));
#425=DIRECTION('',(0.,0.948683295930041,0.316227772378255));
#426=DIRECTION('',(0.,-2.31296463463574E-19,-1.));
#427=DIRECTION('',(0.,1.,-2.31296463463574E-19));
#428=DIRECTION('',(0.,6.70552253723144E-8,-0.999999999999998));
#429=DIRECTION('center_axis',(0.,-0.316227772378255,0.948683295930041));
#430=DIRECTION('ref_axis',(1.,0.,0.));
#431=DIRECTION('',(0.,-0.948683295930041,-0.316227772378255));
#432=DIRECTION('',(0.688247200802026,0.688247200802026,0.229415738728517));
#433=DIRECTION('',(0.688247200802026,-0.688247200802026,-0.229415738728517));
#434=DIRECTION('center_axis',(-1.,0.,0.));
#435=DIRECTION('ref_axis',(0.,0.,1.));
#436=DIRECTION('',(0.,-6.70552253723144E-8,0.999999999999998));
#437=DIRECTION('',(0.,-1.,2.31296463463574E-19));
#438=DIRECTION('',(0.,2.31296463463574E-19,1.));
#439=DIRECTION('center_axis',(0.,0.,1.));
#440=DIRECTION('ref_axis',(1.,0.,0.));
#441=DIRECTION('',(1.,0.,0.));
#442=DIRECTION('',(-0.707106781186547,0.707106781186547,-1.6355129777956E-19));
#443=DIRECTION('',(-0.707106781186547,-0.707106781186547,1.6355129777956E-19));
#444=DIRECTION('center_axis',(0.,2.31296463463574E-19,1.));
#445=DIRECTION('ref_axis',(1.,0.,0.));
#446=DIRECTION('',(1.,0.,0.));
#447=DIRECTION('',(0.,-1.,2.31296463463574E-19));
#448=DIRECTION('',(1.,0.,0.));
#449=DIRECTION('',(0.,-1.,2.31296463463574E-19));
#450=DIRECTION('',(1.,0.,0.));
#451=DIRECTION('',(0.707106781186547,0.707106781186547,-1.6355129777956E-19));
#452=DIRECTION('center_axis',(0.,-0.999999999999998,-6.70552253723145E-8));
#453=DIRECTION('ref_axis',(0.,6.70552253723144E-8,-0.999999999999998));
#454=DIRECTION('',(1.,0.,0.));
#455=DIRECTION('',(0.,-6.70552253723144E-8,0.999999999999998));
#456=DIRECTION('center_axis',(-0.707106781186548,-0.707106781186548,1.6355129777956E-19));
#457=DIRECTION('ref_axis',(2.31296463463574E-19,0.,1.));
#458=DIRECTION('',(0.,0.,1.));
#459=DIRECTION('',(0.,0.,1.));
#460=DIRECTION('',(0.707106781186547,-0.707106781186547,1.6355129777956E-19));
#461=DIRECTION('center_axis',(0.707106781186548,-0.707106781186545,-4.74152045747557E-8));
#462=DIRECTION('ref_axis',(-6.70552253723141E-8,0.,-0.999999999999998));
#463=DIRECTION('',(0.707106781186546,0.707106781186549,-1.6355129777956E-19));
#464=DIRECTION('',(0.,6.70552253723144E-8,-0.999999999999998));
#465=DIRECTION('center_axis',(0.,2.31296463463574E-19,1.));
#466=DIRECTION('ref_axis',(1.,0.,0.));
#467=DIRECTION('',(1.,0.,0.));
#468=DIRECTION('',(0.,1.,-2.31296463463574E-19));
#469=DIRECTION('',(1.,0.,0.));
#470=DIRECTION('',(0.,1.,-2.31296463463574E-19));
#471=DIRECTION('',(1.,0.,0.));
#472=DIRECTION('center_axis',(0.707106781186548,-0.707106781186548,1.6355129777956E-19));
#473=DIRECTION('ref_axis',(2.31296463463574E-19,0.,-1.));
#474=DIRECTION('',(0.,0.,1.));
#475=DIRECTION('center_axis',(0.,1.,-2.31296463463574E-19));
#476=DIRECTION('ref_axis',(0.,2.31296463463574E-19,1.));
#477=DIRECTION('',(1.,0.,0.));
#478=DIRECTION('center_axis',(0.,-6.70552253723145E-8,0.999999999999998));
#479=DIRECTION('ref_axis',(1.,0.,0.));
#480=DIRECTION('',(0.,-0.999999999999998,-6.70552253723144E-8));
#481=DIRECTION('',(1.,0.,0.));
#482=DIRECTION('center_axis',(1.,0.,0.));
#483=DIRECTION('ref_axis',(0.,1.,0.));
#484=DIRECTION('',(0.,-6.70552253723144E-8,0.999999999999998));
#485=DIRECTION('',(0.,0.999999999999998,6.70552252612921E-8));
#486=DIRECTION('',(0.,0.707106781186548,-0.707106781186548));
#487=DIRECTION('center_axis',(0.,-0.707106781186548,-0.707106781186548));
#488=DIRECTION('ref_axis',(-1.,0.,0.));
#489=DIRECTION('',(-1.,0.,0.));
#490=DIRECTION('',(0.,-0.707106781186548,0.707106781186548));
#491=DIRECTION('center_axis',(0.,0.999999999999998,6.70552253723145E-8));
#492=DIRECTION('ref_axis',(0.,-6.70552253723144E-8,0.999999999999998));
#493=DIRECTION('',(1.,0.,0.));
#494=DIRECTION('',(0.,6.70552253723144E-8,-0.999999999999998));
#495=DIRECTION('',(-1.,0.,0.));
#496=DIRECTION('center_axis',(0.,-6.70552253723145E-8,0.999999999999998));
#497=DIRECTION('ref_axis',(1.,0.,0.));
#498=DIRECTION('',(0.,0.999999999999998,6.70552253723144E-8));
#499=DIRECTION('center_axis',(0.,-6.70552252612921E-8,0.999999999999998));
#500=DIRECTION('ref_axis',(1.,0.,0.));
#501=DIRECTION('',(0.,-0.999999999999998,-6.70552252612921E-8));
#502=DIRECTION('center_axis',(1.,0.,0.));
#503=DIRECTION('ref_axis',(0.,1.,0.));
#504=CARTESIAN_POINT('',(0.,0.,0.));
#505=CARTESIAN_POINT('Origin',(0.,-9.05131640624293,-23.9252906297949));
#506=CARTESIAN_POINT('',(-6.,-9.9999997692282,-23.2415184021732));
#507=CARTESIAN_POINT('',(-6.,-8.10263304325765,-24.6090628574166));
#508=CARTESIAN_POINT('',(-6.,3.57368410614297,-33.0248754448116));
#509=CARTESIAN_POINT('',(5.,-8.10263304325765,-24.6090628574166));
#510=CARTESIAN_POINT('',(0.,-8.10263304325766,-24.6090628574166));
#511=CARTESIAN_POINT('',(5.,-9.89999976439513,-23.3135943220583));
#512=CARTESIAN_POINT('',(5.,4.78200725833907,-33.8957854298504));
#513=CARTESIAN_POINT('',(4.,-9.89999976439513,-23.3135943220583));
#514=CARTESIAN_POINT('',(2.,-9.89999976439513,-23.3135943220583));
#515=CARTESIAN_POINT('',(3.9,-9.9999997692282,-23.2415184021732));
#516=CARTESIAN_POINT('',(1.39012850743586,-12.5098713830961,-21.4325054359727));
#517=CARTESIAN_POINT('',(0.,-9.9999997692282,-23.2415184021732));
#518=CARTESIAN_POINT('Origin',(5.,47.9499045630248,-3.1667302212331));
#519=CARTESIAN_POINT('',(5.,55.0000008940697,-3.57485107482293));
#520=CARTESIAN_POINT('',(5.,45.9549023432062,-6.589883992502));
#521=CARTESIAN_POINT('',(5.,55.0000008940697,0.2));
#522=CARTESIAN_POINT('',(5.,55.0000008940697,-7.28336597618766));
#523=CARTESIAN_POINT('',(5.,-9.9000013411045,0.2));
#524=CARTESIAN_POINT('',(5.,13.7499997764826,0.2));
#525=CARTESIAN_POINT('',(5.,-9.90000072643149,-8.96666832218566));
#526=CARTESIAN_POINT('Origin',(0.,43.132454203652,-7.53070006004893));
#527=CARTESIAN_POINT('',(-6.,54.0000008940697,-3.90818441560684));
#528=CARTESIAN_POINT('',(-6.,43.132454203652,-7.53070006004893));
#529=CARTESIAN_POINT('',(0.,60.0000008940697,-1.90818437090336));
#530=CARTESIAN_POINT('',(-39.7987081801542,20.2012927139155,-15.1744207274782));
#531=CARTESIAN_POINT('',(39.7987081801542,20.2012927139155,-15.1744207274782));
#532=CARTESIAN_POINT('Origin',(-6.,42.4999986588955,-5.63333346818885));
#533=CARTESIAN_POINT('',(-6.,-10.0000013411045,0.200000330805779));
#534=CARTESIAN_POINT('',(-6.,-10.0000005029142,-12.3000003397464));
#535=CARTESIAN_POINT('',(-6.,54.0000008940697,0.2));
#536=CARTESIAN_POINT('',(-6.,13.7499997764826,0.2));
#537=CARTESIAN_POINT('',(-6.,54.0000008940697,-8.51666759966554));
#538=CARTESIAN_POINT('Origin',(0.,-14.9999991059303,0.6));
#539=CARTESIAN_POINT('',(-150.,-89.9999991059303,0.6));
#540=CARTESIAN_POINT('',(150.,-89.9999991059303,0.6));
#541=CARTESIAN_POINT('',(0.,-89.9999991059303,0.6));
#542=CARTESIAN_POINT('',(0.,60.0000008940697,0.6));
#543=CARTESIAN_POINT('',(0.,60.0000008940697,0.6));
#544=CARTESIAN_POINT('',(-150.,-89.9999991059303,0.6));
#545=CARTESIAN_POINT('Origin',(0.,-14.9999991059303,0.2));
#546=CARTESIAN_POINT('',(-2.,-10.0000013411045,0.200000330805779));
#547=CARTESIAN_POINT('',(-1.,-10.0000013411045,0.199999999999998));
#548=CARTESIAN_POINT('',(-2.,-15.0000013411045,0.199999995529652));
#549=CARTESIAN_POINT('',(-2.,-5.00000022351742,0.2));
#550=CARTESIAN_POINT('',(-0.375,-15.0000013411045,0.199999995529652));
#551=CARTESIAN_POINT('',(-0.5,-15.0000013411045,0.199999999999998));
#552=CARTESIAN_POINT('',(-0.375,-89.9999979883432,0.199999995529652));
#553=CARTESIAN_POINT('',(-0.375,-33.7499989662319,0.2));
#554=CARTESIAN_POINT('',(-150.,-89.9999991059303,0.2));
#555=CARTESIAN_POINT('',(0.,-89.9999991059303,0.2));
#556=CARTESIAN_POINT('',(-150.,-89.9999991059303,0.2));
#557=CARTESIAN_POINT('Origin',(4.,-9.9000013411045,0.200000000000001));
#558=CARTESIAN_POINT('',(4.,-9.9000013411045,0.2));
#559=CARTESIAN_POINT('',(2.,-9.9000013411045,0.2));
#560=CARTESIAN_POINT('',(4.,-9.90000072643149,-8.96666832218566));
#561=CARTESIAN_POINT('Origin',(75.,-14.9999991059303,0.2));
#562=CARTESIAN_POINT('',(0.,60.0000008940697,0.4));
#563=CARTESIAN_POINT('',(150.,-89.9999991059303,0.2));
#564=CARTESIAN_POINT('',(150.,-89.9999991059303,0.4));
#565=CARTESIAN_POINT('',(0.,60.0000008940697,0.2));
#566=CARTESIAN_POINT('Origin',(3.95,-9.95000072643149,-8.96666832553842));
#567=CARTESIAN_POINT('',(3.9,-10.0000013411045,0.2));
#568=CARTESIAN_POINT('',(1.7000007124618,-12.2000006286427,0.200000000000001));
#569=CARTESIAN_POINT('',(3.9,-10.0000007264315,-8.96666832889118));
#570=CARTESIAN_POINT('Origin',(0.,-14.9999991059303,0.2));
#571=CARTESIAN_POINT('',(0.375,-89.9999979883432,0.199999995529652));
#572=CARTESIAN_POINT('',(0.,-89.9999991059303,0.2));
#573=CARTESIAN_POINT('',(0.375,-15.0000013411045,0.199999995529652));
#574=CARTESIAN_POINT('',(0.375,-33.7499989662319,0.2));
#575=CARTESIAN_POINT('',(2.,-15.0000013411045,0.199999995529652));
#576=CARTESIAN_POINT('',(-0.5,-15.0000013411045,0.199999999999998));
#577=CARTESIAN_POINT('',(2.,-10.0000013411045,0.200000330805779));
#578=CARTESIAN_POINT('',(2.,-5.00000022351742,0.2));
#579=CARTESIAN_POINT('',(1.,-10.0000013411045,0.2));
#580=CARTESIAN_POINT('Origin',(-75.,-14.9999991059303,0.2));
#581=CARTESIAN_POINT('',(-150.,-89.9999991059303,0.4));
#582=CARTESIAN_POINT('Origin',(0.,-89.9999991059303,0.2));
#583=CARTESIAN_POINT('',(0.,-89.9999991059303,0.2));
#584=CARTESIAN_POINT('Origin',(-2.,-15.0000013411045,0.199999999999998));
#585=CARTESIAN_POINT('',(-0.375,-10.0000013411045,0.200000330805779));
#586=CARTESIAN_POINT('',(-0.375,-15.0000013411045,0.199999999999996));
#587=CARTESIAN_POINT('',(-0.5,-10.0000013411045,0.200000335276129));
#588=CARTESIAN_POINT('Origin',(-0.375,-52.4999988265336,-24.8000000044703));
#589=CARTESIAN_POINT('',(-0.375,-9.99999976865949,-23.1999996669591));
#590=CARTESIAN_POINT('',(-0.375,-10.000000083819,-18.5499996691942));
#591=CARTESIAN_POINT('',(-0.375,-66.5999945260588,-23.2000034622845));
#592=CARTESIAN_POINT('',(-0.375,-33.7499986510723,-23.2000012595206));
#593=CARTESIAN_POINT('',(-0.375,-68.1249981967732,-21.67499979157));
#594=CARTESIAN_POINT('Origin',(0.,-77.4999979883432,-12.3));
#595=CARTESIAN_POINT('',(0.375,-66.5999945260588,-23.2000034622845));
#596=CARTESIAN_POINT('',(0.,-66.5999945260588,-23.2000034622845));
#597=CARTESIAN_POINT('',(0.375,-68.1249981967732,-21.67499979157));
#598=CARTESIAN_POINT('Origin',(0.,-10.0000005029142,-12.2999996691942));
#599=CARTESIAN_POINT('',(0.375,-10.0000013411045,0.200000330805779));
#600=CARTESIAN_POINT('',(-0.5,-10.0000013411045,0.200000335276129));
#601=CARTESIAN_POINT('',(0.375,-9.99999976865949,-23.1999996669591));
#602=CARTESIAN_POINT('',(0.375,-10.0000009220094,-6.04999966919422));
#603=CARTESIAN_POINT('',(0.1875,-9.99999977201225,-23.1999996669591));
#604=CARTESIAN_POINT('Origin',(-2.,-15.0000013411045,0.199999999999998));
#605=CARTESIAN_POINT('',(0.375,-15.0000013411045,0.199999999999998));
#606=CARTESIAN_POINT('Origin',(0.375,-14.9999997653067,-23.2000000022352));
#607=CARTESIAN_POINT('',(0.375,-33.7499986510723,-23.2000012595206));
#608=CARTESIAN_POINT('Origin',(0.375,-52.4999988265336,-24.8000000044703));
#609=UNCERTAINTY_MEASURE_WITH_UNIT(LENGTH_MEASURE(0.01),#613,
'DISTANCE_ACCURACY_VALUE',
'Maximum model space distance between geometric entities at asserted c
onnectivities');
#610=UNCERTAINTY_MEASURE_WITH_UNIT(LENGTH_MEASURE(0.01),#613,
'DISTANCE_ACCURACY_VALUE',
'Maximum model space distance between geometric entities at asserted c
onnectivities');
#611=(
GEOMETRIC_REPRESENTATION_CONTEXT(3)
GLOBAL_UNCERTAINTY_ASSIGNED_CONTEXT((#609))
GLOBAL_UNIT_ASSIGNED_CONTEXT((#613,#615,#616))
REPRESENTATION_CONTEXT('','3D')
);
#612=(
GEOMETRIC_REPRESENTATION_CONTEXT(3)
GLOBAL_UNCERTAINTY_ASSIGNED_CONTEXT((#610))
GLOBAL_UNIT_ASSIGNED_CONTEXT((#613,#615,#616))
REPRESENTATION_CONTEXT('','3D')
);
#613=(
LENGTH_UNIT()
NAMED_UNIT(*)
SI_UNIT(.MILLI.,.METRE.)
);
#614=(
LENGTH_UNIT()
NAMED_UNIT(*)
SI_UNIT($,.METRE.)
);
#615=(
NAMED_UNIT(*)
PLANE_ANGLE_UNIT()
SI_UNIT($,.RADIAN.)
);
#616=(
NAMED_UNIT(*)
SI_UNIT($,.STERADIAN.)
SOLID_ANGLE_UNIT()
);
#617=SHAPE_DEFINITION_REPRESENTATION(#618,#619);
#618=PRODUCT_DEFINITION_SHAPE('',$,#621);
#619=SHAPE_REPRESENTATION('',(#393),#611);
#620=PRODUCT_DEFINITION_CONTEXT('part definition',#625,'design');
#621=PRODUCT_DEFINITION('2026-10-04-17-11-53-879','Plane_W',#622,#620);
#622=PRODUCT_DEFINITION_FORMATION('',$,#627);
#623=PRODUCT_RELATED_PRODUCT_CATEGORY('Plane_W','Plane_W',(#627));
#624=APPLICATION_PROTOCOL_DEFINITION('international standard',
'automotive_design',2009,#625);
#625=APPLICATION_CONTEXT(
'Core Data for Automotive Mechanical Design Process');
#626=PRODUCT_CONTEXT('part definition',#625,'mechanical');
#627=PRODUCT('2026-10-04-17-11-53-879','Plane_W',$,(#626));
#628=PRESENTATION_STYLE_ASSIGNMENT((#629));
#629=SURFACE_STYLE_USAGE(.BOTH.,#630);
#630=SURFACE_SIDE_STYLE('',(#631));
#631=SURFACE_STYLE_FILL_AREA(#632);
#632=FILL_AREA_STYLE('Plastic - Matte (Gray)',(#633));
#633=FILL_AREA_STYLE_COLOUR('Plastic - Matte (Gray)',#634);
#634=COLOUR_RGB('Plastic - Matte (Gray)',0.701960784313725,0.701960784313725,
0.701960784313725);
ENDSEC;
END-ISO-10303-21;
